<?xml version="1.0" encoding="UTF-8" standalone="no"?>
<!-- Created with Inkscape (http://www.inkscape.org/) -->

<svg
   width="512"
   height="512"
   viewBox="0 0 135.46666 135.46667"
   version="1.1"
   id="svg1"
   xmlns:xlink="http://www.w3.org/1999/xlink"
   xmlns="http://www.w3.org/2000/svg"
   xmlns:svg="http://www.w3.org/2000/svg">
  <defs
     id="defs1">
    <linearGradient
       xlink:href="#linearGradient5"
       id="linearGradient15"
       gradientUnits="userSpaceOnUse"
       gradientTransform="matrix(6.4567271,0,0,6.4567271,-42.773983,-176.59485)"
       x1="16.81159"
       y1="31.507029"
       x2="14.215572"
       y2="46.00037" />
    <linearGradient
       id="linearGradient5">
      <stop
         style="stop-color:#d40000;stop-opacity:1;"
         offset="0"
         id="stop5" />
      <stop
         style="stop-color:#ff155f;stop-opacity:1;"
         offset="1"
         id="stop6" />
    </linearGradient>
  </defs>
  <g
     id="layer1">
    <path
       id="path1-1-9-1"
       style="font-size:22.3675px;font-family:Ramabhadra;-inkscape-font-specification:'Ramabhadra, Normal';display:inline;fill:url(#linearGradient15);stroke-width:15.917;stroke-linecap:round;stroke-linejoin:round;stroke-miterlimit:3.5"
       d="m 40.441984,25.198757 c -11.136005,0 -19.429019,1.680907 -24.881046,5.044936 -5.5680283,3.363976 -8.3515161,9.570204 -8.3515161,18.618264 0,13.572063 7.4812591,21.4592 22.4453551,23.6632 -5.800034,3.01602 -12.063763,9.91895 -18.791768,20.706999 L 0.42275835,109.76172 H 20.956253 L 39.224138,82.444897 c 1.855993,-2.784014 3.946149,-4.813301 6.266153,-6.089278 2.203999,-1.276031 5.684189,-1.915284 10.440251,-1.915284 h 3.476713 v 35.331385 h 17.050094 v -0.0106 h 0.0033 V 74.447444 H 79.9374 c 4.756008,0 8.236197,0.639252 10.440198,1.915283 2.320056,1.275979 4.40679,3.305265 6.262835,6.089278 l 18.271257,27.316815 h 20.5335 L 125.00497,93.239264 C 118.2769,82.451216 112.01318,75.548286 106.2132,72.532265 c 14.96409,-2.204 22.44535,-10.091136 22.44535,-23.663199 0,-9.04806 -2.78354,-15.254289 -8.35151,-18.618317 -5.45202,-3.363975 -13.74831,-5.044884 -24.88442,-5.044884 H 76.460666 v -0.01051 z m 5.568818,14.26729 H 59.407255 V 61.043882 H 46.708136 c -8.584049,0 -14.384347,-0.696701 -17.400367,-2.088682 -3.01602,-1.508036 -4.524477,-4.467345 -4.524477,-8.875345 0,-4.176048 1.275083,-6.959536 3.827091,-8.351517 2.436059,-1.508036 8.236356,-2.262291 17.400419,-2.262291 z m 30.449864,0.01051 h 13.396506 c 9.164062,0 14.964358,0.754202 17.400368,2.262238 2.55201,1.39198 3.82709,4.175469 3.82709,8.351517 0,4.408001 -1.5084,7.367362 -4.52442,8.875345 -3.01607,1.391981 -8.816375,2.085417 -17.400424,2.085417 h -12.69912 z" />
  </g>
</svg>
