<?xml version="1.0" encoding="UTF-8" standalone="no"?>
<!-- Created with Inkscape (http://www.inkscape.org/) -->

<svg
   width="1500"
   height="500"
   viewBox="0 0 396.875 132.29167"
   version="1.1"
   id="svg1"
   inkscape:version="1.3.1 (9b9bdc1480, 2023-11-25, custom)"
   sodipodi:docname="logo_horizontal"
   xmlns:inkscape="http://www.inkscape.org/namespaces/inkscape"
   xmlns:sodipodi="http://sodipodi.sourceforge.net/DTD/sodipodi-0.dtd"
   xmlns:xlink="http://www.w3.org/1999/xlink"
   xmlns="http://www.w3.org/2000/svg"
   xmlns:svg="http://www.w3.org/2000/svg">
  <sodipodi:namedview
     id="namedview1"
     pagecolor="#ffffff"
     bordercolor="#000000"
     borderopacity="0.25"
     inkscape:showpageshadow="2"
     inkscape:pageopacity="0.0"
     inkscape:pagecheckerboard="0"
     inkscape:deskcolor="#d1d1d1"
     inkscape:document-units="mm"
     inkscape:zoom="0.51402139"
     inkscape:cx="844.32283"
     inkscape:cy="326.83465"
     inkscape:window-width="2560"
     inkscape:window-height="1016"
     inkscape:window-x="0"
     inkscape:window-y="27"
     inkscape:window-maximized="1"
     inkscape:current-layer="layer1" />
  <defs
     id="defs1">
    <linearGradient
       inkscape:collect="always"
       xlink:href="#linearGradient3"
       id="linearGradient10-6"
       x1="59.086117"
       y1="13.245996"
       x2="53.631924"
       y2="31.356947"
       gradientUnits="userSpaceOnUse"
       gradientTransform="matrix(1.7352361,0,0,1.7352361,12.392301,72.999277)" />
    <linearGradient
       id="linearGradient3"
       inkscape:collect="always">
      <stop
         style="stop-color:#d40000;stop-opacity:1;"
         offset="0"
         id="stop3" />
      <stop
         style="stop-color:#ff155f;stop-opacity:1;"
         offset="1"
         id="stop4" />
    </linearGradient>
    <linearGradient
       inkscape:collect="always"
       xlink:href="#linearGradient3"
       id="linearGradient8-5"
       x1="10.241826"
       y1="12.877981"
       x2="6.5019083"
       y2="32.581203"
       gradientUnits="userSpaceOnUse"
       gradientTransform="matrix(1.7352361,0,0,1.7352361,12.392301,72.999277)" />
    <linearGradient
       inkscape:collect="always"
       xlink:href="#linearGradient3"
       id="linearGradient11"
       gradientUnits="userSpaceOnUse"
       gradientTransform="matrix(0.10441092,2.0363001,-2.0363001,0.10441092,147.46076,154.45295)"
       x1="-71.204857"
       y1="37.136494"
       x2="-30.166716"
       y2="37.136494" />
  </defs>
  <g
     inkscape:label="Camada 1"
     inkscape:groupmode="layer"
     id="layer1">
    <g
       id="g3"
       transform="matrix(1.0826474,0,0,1.0826474,-17.324797,0.12265643)">
      <g
         id="g2"
         transform="matrix(1.1475461,0,0,1.1475461,16.844535,-0.57627732)">
        <path
           id="path36-5-5"
           style="fill:url(#linearGradient11);fill-opacity:1;stroke:none;stroke-width:20.3637;stroke-linecap:round;stroke-linejoin:round;stroke-miterlimit:3.5;stroke-dasharray:none;stroke-opacity:1;paint-order:normal"
           inkscape:label="circulo"
           d="m 66.558131,13.280107 c -0.714,4.3e-4 -1.43171,0.0188 -2.15284,0.0558 -23.07607,1.18327 -40.82374,20.84941 -39.64047,43.92548 0.60515,11.792 6.17402,22.75184 15.28537,30.21315 0.19443,-0.008 0.49618,-0.0253 0.6258,-0.0253 1.1591,-1e-5 1.95328,-0.013 2.92386,-0.3359 0.28687,-0.0954 0.52348,-0.0931 0.68161,-0.10335 0.13153,-0.009 0.17028,-0.0207 0.19327,-0.0274 0.0541,-0.0736 0.15458,-0.24566 0.40824,-0.37724 0.26396,-0.13706 0.34863,-0.11013 0.50385,-0.13074 0.15522,-0.0206 0.32554,-0.037 0.49247,-0.0506 0.16694,-0.0137 0.33,-0.0258 0.45889,-0.0372 0.12889,-0.0113 0.25675,-0.0339 0.19947,-0.0196 -0.0155,0.004 0.0438,-0.021 0.16588,-0.10129 0.12212,-0.0803 0.31092,-0.21825 0.6072,-0.2775 0.27135,-0.0542 0.40542,-0.0226 0.52917,-0.01 0.0791,-0.0448 0.14541,-0.0896 0.30696,-0.1447 0.82558,-0.28113 1.75669,-0.11817 2.70887,-0.0506 0.95219,0.0675 1.89203,0.0252 2.13269,-0.0977 0.29741,-0.15176 0.54812,-0.16291 0.81856,-0.17001 0.27043,-0.007 0.55272,0.0135 0.82837,0.045 0.5513,0.0629 1.03295,0.15691 1.3534,0.26561 0.15665,0.0532 0.56667,0.0772 0.99994,0.0506 0.43328,-0.0265 0.8857,-0.0858 1.29295,-0.0858 h 5.4746 c 0.54313,-1e-5 1.46919,-0.19852 2.34198,0.0196 a 0.66273128,0.66273128 0 0 1 0.002,0 c 0.2126,0.0533 0.32665,0.14423 0.38292,0.18139 0.29035,0.0544 0.82219,0.0647 1.38441,0.0646 0.57808,-7e-5 1.17254,-0.0107 1.71669,0.12506 0.18538,0.0463 0.18167,0.11681 0.25632,0.1974 0.12016,0.0341 0.37753,0.0322 0.72657,-0.0119 0.36029,-0.0455 0.79615,-0.12997 1.29863,0 0.17606,0.0454 0.16052,0.10684 0.23461,0.18345 -0.0361,-0.0165 0.15913,0.008 0.4253,0.002 0.30035,-0.007 0.67821,-0.0252 1.05316,-0.0408 0.37496,-0.0157 0.74603,-0.0287 1.04852,-0.0294 0.15125,-3.4e-4 0.28233,8.8e-4 0.40824,0.0119 0.063,0.005 0.12342,0.0132 0.20102,0.031 0.0776,0.0178 0.17628,-0.002 0.37724,0.19947 0.001,0.001 0.001,0.002 0.002,0.004 0.0169,0.003 0.0129,-0.004 0.031,10e-6 0.33092,0.0662 0.51644,0.17509 0.59014,0.19379 0.10979,0.0279 0.33091,0.0183 0.62891,-0.016 0.29798,-0.0343 0.67325,-0.0927 1.10742,0.016 0.34753,0.0872 1.74175,0.23346 3.04684,0.26354 0.65255,0.0151 1.30058,0.007 1.8278,-0.0331 0.52722,-0.0398 0.96479,-0.14753 1.01389,-0.17208 0.51284,-0.25639 0.95184,-0.14035 1.29501,-0.0879 0.34317,0.0525 0.61695,0.0501 0.61495,0.0506 1.0136,-0.33841 1.82282,-0.15617 2.3828,-0.36329 0.37973,-0.14049 0.68544,-0.0855 0.91623,-0.0584 0.23078,0.0272 0.40331,0.0325 0.41031,0.031 0.76732,-0.15602 1.43599,-0.17317 1.95853,-0.34933 0.32105,-0.10831 0.54354,-0.0479 0.67231,-0.0295 0.076,0.0109 0.0347,0.0137 0.0367,0.0155 0.0663,-0.0696 0.0562,-0.12178 0.21135,-0.17363 a 0.66273128,0.66273128 0 0 1 0.001,0 c 0.51282,-0.17088 0.96068,-0.10324 1.27383,-0.078 0.31314,0.0252 0.47855,0.0269 0.67179,-0.0703 0.32617,-0.16406 0.51416,-0.13499 0.69195,-0.1137 9.055279,-8.40566 13.961779,-20.3951 13.331479,-32.77732 -1.14629,-22.35496 -19.638409,-39.70924 -41.772639,-39.69629 z" />
        <path
           id="rect2-4"
           style="fill:#ffffff;stroke-width:4.24107;stroke-linecap:round;stroke-linejoin:round;stroke-miterlimit:3.5"
           d="m 63.711281,18.323207 c -0.38127,0.4427 -0.76228,0.92481 -1.61334,1.52963 -1.49432,1.06196 -3.86272,2.08198 -7.11119,2.41174 4.94687,6.23095 8.7675,12.67596 10.32805,15.42593 0.32378,-2.8958 0.68538,-9.51343 -1.60352,-19.3673 z m 1.17564,0.13488 c 1.90726,8.40934 1.86434,14.14025 1.61747,17.64854 0.1062,-0.34292 0.24704,-0.71539 0.33383,-1.01751 2.01404,-7.01052 1.99959,-15.20156 1.99419,-16.09411 -1.7965,0.083 -3.09958,-0.16899 -3.92172,-0.52503 -0.009,-0.004 -0.0146,-0.008 -0.0238,-0.0119 z m -10.71666,4.59197 c -0.21307,0.56087 -0.54229,1.30374 -1.15032,2.25206 -1.19638,1.86585 -3.46297,4.4326 -7.30291,7.36492 2.19436,0.84878 11.7782,4.45896 18.97662,6.19136 -1.15479,-2.07206 -5.21532,-9.10313 -10.52339,-15.80834 z m 15.53135,1.19321 c -0.15052,2.08881 -0.47242,4.39075 -0.93379,6.92567 0.89721,-2.8343 1.54925,-5.13571 1.69757,-5.73608 -0.22628,-0.18309 -0.46306,-0.44192 -0.68006,-0.8909 -0.0327,-0.0677 -0.0519,-0.22333 -0.0837,-0.29869 z m -19.18281,0.65681 c -0.2703,0.21718 -0.55868,0.47135 -0.84387,0.7586 l 0.48369,0.45166 c 0.20324,-0.45646 0.30317,-0.90145 0.3886,-1.19683 l -0.0279,-0.0134 z m -1.90789,2.07325 c -0.22869,0.36093 -0.42456,0.7486 -0.56586,1.16014 l 0.0444,0.0212 c 0.24763,-0.18342 0.63521,-0.40745 1.01958,-0.7152 z m -3.18275,6.7815 c 0.47636,1.79773 0.964,5.78849 -1.93735,9.38289 2.1875,0.0431 9.3024,-0.13679 20.39462,-3.34553 -7.16257,-1.78678 -16.10011,-5.126 -18.45727,-6.03736 z m 17.30075,7.50807 c -10.21539,2.78855 -16.84042,3.02568 -19.12131,2.99207 0.22074,0.22443 0.42245,0.3725 0.64853,0.70124 0.68766,0.99987 1.21398,2.58206 1.12707,4.66225 1.4753,-0.34088 9.30252,-2.46064 17.34571,-8.35556 z m 14.77946,4.8612 c -0.30208,0.005 -0.58933,0.0421 -0.85938,0.0977 -0.5401,0.11112 -1.00163,0.30685 -1.32447,0.48266 -0.16141,0.0879 -0.28935,0.17072 -0.3669,0.22841 -0.0135,0.01 -0.0151,0.012 -0.0253,0.0202 a 0.66266501,0.66266501 0 0 1 -0.0274,0.0403 c 0,0 -0.12987,0.18248 -0.30076,0.48162 l 2.16783,2.12235 -1.06143,1.08418 -1.74977,-1.71308 c -0.1861,0.5911 -0.32984,1.27678 -0.32814,2.03657 4.99564,0.878 9.31275,2.51826 12.83539,4.30413 0.61264,-2.05609 0.0305,-3.62348 -0.12609,-3.9858 -0.6831,-0.58412 -1.28517,-0.90137 -2.13837,-1.39837 -0.89614,-0.52199 -2.03115,-1.23567 -3.66231,-2.62103 -0.7258,-0.61642 -1.42918,-0.94168 -2.08566,-1.08623 v 5.1e-4 c -0.32824,-0.0723 -0.64514,-0.0993 -0.94723,-0.0941 z m -20.66437,0.19534 c -3.15066,1.64746 -5.64681,2.58358 -7.76335,3.283 0.9986,-0.0449 2.04707,-0.11195 2.7559,-0.0274 0.16219,-0.0871 2.24744,-1.37027 5.00745,-3.25561 z m 15.54892,1.11414 c -0.8743,0.15046 -1.90675,0.38355 -2.95486,0.69247 -0.11282,0.0333 -0.22487,0.0743 -0.33796,0.10904 l 0.0351,2.9471 c 0.75805,-0.15794 1.48937,-0.29217 2.15439,-0.35088 0.35832,-0.0316 0.69665,-0.0393 1.02009,-0.0279 0.0274,-1.11574 0.29722,-2.09287 0.60306,-2.86132 z m -5.53972,1.59267 c -1.06231,0.42472 -2.01978,0.88167 -2.6696,1.3255 -0.0575,0.0985 -0.17079,0.31874 -0.2868,0.70383 -0.12123,0.40246 -0.22742,0.95618 -0.21704,1.65882 0.96783,-0.33591 2.03377,-0.66962 3.10988,-0.96635 z m -4.60747,1.34359 c -0.60189,0.006 -1.30722,0.0711 -1.98179,0.24443 -1.34263,0.34503 -2.54286,1.05093 -3.05252,2.44171 -0.0472,0.25148 -0.0971,0.49024 -0.14676,0.73484 0.26518,-0.0855 0.55876,-0.1738 0.88521,-0.26045 1.16511,-0.30924 2.71851,-0.56848 4.41007,-0.58446 -0.0385,-0.94287 0.0979,-1.70914 0.26768,-2.27273 0.0305,-0.10131 0.0623,-0.19659 0.0951,-0.28629 -0.1561,-0.007 -0.29948,-0.0188 -0.47697,-0.017 z m 25.54987,1.16789 c 0.24908,0.94323 0.47086,2.5508 -0.13746,4.39921 4.23314,2.29771 7.17084,4.70869 8.57157,5.97224 0.007,-0.16934 0.0157,-0.24989 0.0207,-0.45475 0.0588,-2.21072 -0.0533,-3.55976 -0.22841,-4.41833 -0.1751,-0.85857 -0.38432,-1.21349 -0.63304,-1.60507 -0.54412,-0.85664 -0.81234,-1.59038 -3.04684,-2.09962 -0.96684,-0.22034 -1.78668,-0.78666 -2.64842,-1.20716 -0.61784,-0.30148 -1.23195,-0.53337 -1.89756,-0.58652 z m -15.83831,0.61805 c -0.75828,0.0237 -1.7544,0.15483 -2.80655,0.37465 l 0.0636,5.39502 c 0.83887,0.097 1.658,0.24367 2.44998,0.44235 -0.21963,-2.50913 0.24737,-5.02666 0.51831,-6.21202 -0.0753,1.7e-4 -0.14449,-0.002 -0.2253,0 z m 1.55184,0.16949 c -0.25271,1.10344 -0.79067,3.87407 -0.47542,6.38618 5.35652,1.23441 9.67633,2.50199 13.07052,3.66902 0.62755,-2.13017 0.25828,-4.81791 0.10335,-5.72419 -3.45325,-1.7858 -7.72447,-3.44468 -12.69845,-4.33101 z m -6.75204,0.80719 c -1.06822,0.30372 -2.12288,0.64038 -3.05305,0.97203 -0.0761,0.31862 -0.17152,0.86904 -0.19792,1.52136 -0.0289,0.71453 0.018,1.56654 0.21704,2.44533 0.98857,-0.15574 1.96531,-0.24208 2.92437,-0.26355 z m -4.43849,1.10949 c -1.53575,0.023 -2.95369,0.28247 -4.02921,0.56793 -0.63319,0.16805 -1.14855,0.34388 -1.49604,0.47852 -0.008,0.003 -0.01,0.004 -0.0171,0.007 -0.17157,1.02239 -0.24877,2.0479 -0.0703,3.17345 0.22322,-0.0674 0.48308,-0.13509 0.82373,-0.19844 0.99587,-0.1852 2.5436,-0.32143 4.83588,-0.21032 -0.17545,-0.90269 -0.213,-1.75701 -0.18345,-2.48719 0.0209,-0.51605 0.0714,-0.96087 0.13642,-1.33118 z m 25.36848,3.22203 c 0.16945,1.35058 0.26934,3.45023 -0.32867,5.36194 1.50613,0.54247 2.8343,1.06117 3.95067,1.5348 2.37058,1.00572 3.82866,1.79167 4.66896,2.28151 0.1146,-0.85068 0.0932,-1.85521 0.0594,-2.89491 a 0.66273128,0.66273128 0 0 1 0.0553,-0.1478 c -0.36518,-0.37109 -3.28505,-3.24654 -8.40568,-6.13554 z m -30.90303,1.43092 c 0.005,0.0253 0.008,0.0495 0.0134,0.0749 a 0.66266501,0.66266501 0 0 1 0.13074,0.1819 c -10e-4,-0.0115 -0.006,-0.0491 -0.006,-0.0491 7e-5,1.7e-4 -0.11536,-0.18773 -0.11523,-0.18758 2e-5,3e-5 -0.0177,-0.0153 -0.0232,-0.0202 z m 9.83196,0.23099 c -0.96156,0.0191 -1.9451,0.11124 -2.94246,0.28009 -0.0429,0.12213 -0.0939,0.31703 -0.14417,0.55087 l -1.3131,-0.21497 c 0.0275,-0.12881 0.0568,-0.24894 0.0863,-0.35915 -0.63303,-0.0308 -1.20318,-0.0417 -1.71462,-0.0377 -0.24472,0.002 -0.46417,0.01 -0.68265,0.0181 l -0.0982,-0.016 v 0.0186 c -0.87753,0.0365 -1.54888,0.11725 -2.03554,0.20774 -0.49832,0.0927 -0.8112,0.19425 -0.96893,0.25787 -0.0137,0.006 -0.007,0.003 -0.0191,0.008 -3.5e-4,0.004 -6.5e-4,0.007 -10e-4,0.0114 h -0.84956 v 10e-4 h 3.73827 v 11.99823 h -13.12739 v -4.34599 l -0.51418,0.35915 c 0.0145,0.0148 0.0326,0.0249 0.047,0.0398 v 3.4923 a 4.9226138,8.6114829 0 0 0 -3.46646,-2.50166 4.9226138,8.6114829 0 0 0 -4.92218,8.61188 4.9226138,8.6114829 0 0 0 4.92218,8.61136 4.9226138,8.6114829 0 0 0 4.7315,-6.31589 h -5.40587 c -0.75683,-1.21054 -0.7115,-2.39923 0,-3.74396 h 5.52421 a 4.9226138,8.6114829 0 0 0 -0.14832,-1.03301 h -2.98586 c -0.24715,-1.4273 0.12812,-2.31167 0.99942,-2.76366 h 1.18701 a 4.9226138,8.6114829 0 0 0 -0.005,-0.0134 h 1.81177 c 0.001,0.004 0.002,0.009 0.003,0.0134 h 17.98702 z m 2.61431,0.13488 0.0553,4.7103 c 0.70656,0.0708 1.4239,0.16192 2.15646,0.29508 -0.20216,-2.04085 0.0251,-3.64599 0.2129,-4.53203 -0.77892,-0.21151 -1.58985,-0.36936 -2.42465,-0.47335 z m -12.2747,0.15813 a 0.66266501,0.66266501 0 0 1 -0.002,0.0605 c 0.001,-0.003 0.006,-0.0176 0.006,-0.0176 0,5e-5 -0.003,-0.0339 -0.004,-0.0429 z m -0.045,0.18965 a 0.66266501,0.66266501 0 0 1 -0.1018,0.16382 c 0.0169,-0.0194 10e-4,0.008 0.0274,-0.0269 0.0167,-0.0219 0.0592,-0.0925 0.0589,-0.092 -7e-5,1.4e-4 0.01,-0.0287 0.0155,-0.045 z m 3.33054,0.26045 5.83066,1.02836 0.0181,11.03964 -5.84874,-0.0698 z m 12.69484,0.17983 c -0.17556,0.821 -0.39204,2.38381 -0.13591,4.44211 0.36687,0.0488 0.71544,0.10082 1.07228,0.15141 l 4.35891,-0.46922 c 1.8944,-4e-5 3.37966,0.76478 4.50825,2.09703 1.21856,0.28348 2.35521,0.57317 3.39101,0.86558 0.35163,-1.08674 0.32033,-1.9219 0.20361,-2.50579 -0.0915,-0.45757 -0.21976,-0.7333 -0.29456,-0.86661 -3.36038,-1.1725 -7.67914,-2.4574 -13.10359,-3.71451 z m 14.69006,4.28088 c 0.003,0.0136 0.006,0.0265 0.009,0.0403 0.15634,0.78203 0.1723,1.85749 -0.23668,3.14554 1.5673,0.47792 2.93411,0.95442 4.06642,1.4056 2.13936,0.85246 3.54312,1.62096 4.38216,2.13992 0.0811,-0.95107 -0.0255,-1.95486 -0.0894,-3.0179 -0.61372,-0.38134 -2.15717,-1.26994 -4.96662,-2.46186 -0.91808,-0.3895 -1.97377,-0.81062 -3.16467,-1.25161 z m -18.32498,0.97565 0.0196,1.64641 c 0.45013,-0.59639 0.93797,-1.08575 1.4552,-1.44797 -0.49564,-0.0803 -0.98759,-0.14751 -1.47484,-0.19844 z m 10.19782,2.2655 a 4.7743616,10.059762 0 0 0 -4.77438,10.06036 4.7743616,10.059762 0 0 0 4.77439,10.05934 4.7743616,10.059762 0 0 0 4.77386,-10.05934 4.7743616,10.059762 0 0 0 -4.77386,-10.06037 z m 4.30672,0.32039 c 0.82485,1.60393 1.34852,3.64968 1.61334,5.97845 l 0.0568,0.0119 c 0.80489,-2.11722 0.59234,-4.52536 0.47232,-5.41828 -0.67045,-0.19166 -1.39172,-0.38274 -2.14251,-0.57206 z m 3.53156,0.9896 c 0.11754,1.20108 0.16179,3.26901 -0.54932,5.27255 l 7.56595,1.56631 c 0.32033,-1.33966 0.77871,-2.41852 1.32292,-3.11712 10e-4,-0.023 0.005,-0.0592 0.005,-0.0811 -0.55601,-0.3905 -1.9744,-1.27908 -4.70669,-2.36781 -1.02096,-0.40682 -2.24073,-0.83778 -3.63751,-1.27279 z m 13.565589,4.59404 c -1.324839,1.4e-4 -1.759159,2.95678 -1.759069,6.56291 5e-5,3.60584 0.43433,6.4961 1.759069,6.49624 1.32473,-1.4e-4 1.93368,-2.86715 1.93373,-6.47299 8e-5,-3.60612 -0.6089,-6.58602 -1.93373,-6.58616 z m -20.646289,1.48311 a 1.3769199,2.9012225 0 0 1 1.37666,2.90112 1.3769199,2.9012225 0 0 1 -1.37666,2.90111 1.3769199,2.9012225 0 0 1 -1.37718,-2.90111 1.3769199,2.9012225 0 0 1 1.37718,-2.90112 z m 20.927409,3.29902 a 0.69180369,1.8830537 0 0 1 0.69194,1.88309 0.69180369,1.8830537 0 0 1 -0.69194,1.88309 0.69180369,1.8830537 0 0 1 -0.69195,-1.88309 0.69180369,1.8830537 0 0 1 0.69195,-1.88309 z" />
        <path
           id="path4"
           style="color:#000000;fill:#000000;stroke-linecap:round;stroke-linejoin:round;stroke-miterlimit:3.5;-inkscape-stroke:none"
           d="m 64.064741,16.635457 c -0.14712,-0.0196 -0.29595,0.0215 -0.41392,0.11162 -0.0604,0.0458 -0.11284,0.10207 -0.15038,0.16795 0,0 -0.56496,0.96065 -2.06293,2.0252 -1.49711,1.06395 -3.8902,2.18655 -7.51736,2.3518 -0.29285,0.0125 -0.504,0.27349 -0.5116,0.56224 l 0.008,-0.13436 c -0.009,0.0189 -0.0168,0.0387 -0.0232,0.0584 a 0.35685618,0.35685618 0 0 0 -0.0139,0.0625 c 0,0 -0.0252,0.20529 -0.20516,0.69711 -0.17958,0.49043 -0.50892,1.2234 -1.10949,2.16008 -0.35881,0.55959 -0.8294,1.19985 -1.40663,1.89549 l -0.14211,-0.13281 c 0.44046,-0.79577 0.59105,-1.52579 0.33279,-1.81849 -0.002,-0.002 -0.004,-0.003 -0.006,-0.005 -0.002,-0.003 -0.004,-0.006 -0.008,-0.008 -0.006,-0.006 -0.0104,-0.0107 -0.0165,-0.016 -0.5345,-0.51134 -1.69679,-0.59033 -2.34146,-0.58181 h -0.001 c -1.59584,0.022 -1.91903,1.21395 -1.77715,2.11821 0.0952,0.60637 0.58173,1.88783 1.13584,2.40761 0.0102,0.0169 0.0214,0.0337 0.0377,0.0506 0.29284,0.30137 0.95336,-0.0682 1.63195,-0.7829 l 0.0326,0.0305 c -1.27871,1.34777 -2.96877,2.86978 -5.23328,4.52479 -0.0101,0.007 -0.0198,0.0139 -0.0295,0.0217 -0.006,0.004 -0.009,0.006 -0.0196,0.0134 a 0.35685618,0.35685618 0 0 0 -0.0274,0.0238 c -0.0186,0.0171 -0.0304,0.039 -0.0465,0.0584 -0.0211,0.0196 -0.0411,0.0399 -0.0589,0.0625 a 0.35685618,0.35685618 0 0 0 -0.0605,0.16226 c -0.0171,0.0675 -0.02,0.1359 -0.0145,0.20413 -2.6e-4,0.0474 0.005,0.0956 0.0165,0.14159 a 0.35685618,0.35685618 0 0 0 0.0155,0.0465 c 0,0 2.42959,5.86881 -2.19314,10.27172 a 0.35685618,0.35685618 0 0 0 -0.045,0.0527 c -0.005,0.007 -0.008,0.0144 -0.0119,0.0212 -0.008,0.009 -0.018,0.0164 -0.0253,0.0258 a 0.35685618,0.35685618 0 0 0 -0.0295,0.0429 c -0.15197,0.26803 -0.0529,0.61891 0.21704,0.7674 a 0.35685618,0.35685618 0 0 0 0.004,0.002 c 0,0 0.67408,0.355 1.32446,1.30069 0.65033,0.94561 1.24439,2.43783 0.93173,4.76354 a 0.35685618,0.35685618 0 0 0 0,0.0413 c -0.002,0.0136 -0.006,0.0271 -0.006,0.0408 a 0.35685618,0.35685618 0 0 0 0.0119,0.11162 c 0.006,0.0209 0.0152,0.0404 0.0233,0.0605 0.003,0.0108 0.006,0.0205 0.01,0.031 a 0.35685618,0.35685618 0 0 0 0.01,0.0196 c 9.8e-4,0.002 0.003,0.004 0.004,0.006 0.0353,0.0748 0.0844,0.14273 0.14831,0.19534 a 0.35685618,0.35685618 0 0 0 0.01,0.008 c 0.007,0.005 0.0144,0.009 0.0212,0.0139 0.0579,0.041 0.12493,0.0671 0.19379,0.0837 a 0.35685618,0.35685618 0 0 0 0.0801,0.0119 l -0.045,-0.002 c 0.0315,0.008 0.0633,0.0119 0.0956,0.0139 a 0.35685618,0.35685618 0 0 0 0.0605,-0.002 c 0,0 1.31181,-0.14353 2.85357,-0.25218 1.5405,-0.10858 3.35513,-0.16499 4.15427,-0.0429 a 0.35685618,0.35685618 0 0 0 0.0155,0.002 c 0.078,0.008 0.15493,-0.006 0.22892,-0.0295 0.009,-0.001 0.0179,-0.002 0.0269,-0.004 a 0.35685618,0.35685618 0 0 0 0.10181,-0.0351 c 0,0 6.50801,-3.47006 13.42037,-9.76737 l 0.62373,0.61133 -0.68368,0.69815 1.36219,1.33377 -0.0961,4.09071 c -1.22947,0.46603 -2.37763,0.9931 -3.2613,1.57044 -0.88296,-0.16384 -2.22672,-0.21046 -3.69124,0.16589 -1.60063,0.41132 -3.2936,1.37642 -3.98271,3.29127 a 0.66273128,0.66273128 0 0 0 -0.0274,0.10335 c -0.10101,0.54654 -0.22252,1.10275 -0.33435,1.6738 -0.009,0.007 -0.0121,0.007 -0.0227,0.0155 -0.0247,0.0201 -0.0564,0.0453 -0.10387,0.10335 -0.0237,0.0291 -0.0833,0.12837 -0.0837,0.12919 -4.1e-4,8.3e-4 -0.0687,0.29442 -0.0687,0.29508 a 0.66266501,0.66266501 0 0 0 0.12144,0.36328 c -0.18542,1.19797 -0.25331,2.48291 0.0677,3.92999 -0.0124,0.21747 -0.0376,0.41259 -0.0584,0.61496 h 1.34152 c 3.8e-4,-0.004 6.5e-4,-0.007 10e-4,-0.0114 0.0116,-0.005 0.005,-0.003 0.0191,-0.008 0.15773,-0.0636 0.47061,-0.16519 0.96893,-0.25786 0.48666,-0.0905 1.15801,-0.17127 2.03554,-0.20774 v -0.0186 l 0.0982,0.016 c 0.21847,-0.008 0.43792,-0.0162 0.68264,-0.0181 0.51145,-0.004 1.0816,0.007 1.71463,0.0377 -0.0295,0.11022 -0.0588,0.23035 -0.0863,0.35915 l 1.31309,0.21498 c 0.0502,-0.23384 0.1013,-0.42875 0.14418,-0.55088 0.99736,-0.16884 1.98089,-0.26098 2.94246,-0.28008 l -0.30735,13.13457 h -17.98702 c -10e-4,-0.004 -0.002,-0.009 -0.003,-0.0134 h -1.81178 a 4.9226138,8.6114829 0 0 1 0.005,0.0134 h -1.187 c -0.8713,0.45198 -1.24657,1.33635 -0.99942,2.76365 h 2.98586 a 4.9226138,8.6114829 0 0 1 0.14831,1.03301 h -5.52421 c -0.7115,1.34473 -0.75682,2.53342 0,3.74396 h 5.40587 a 4.9226138,8.6114829 0 0 1 -4.73149,6.3159 4.9226138,8.6114829 0 0 1 -4.92218,-8.61137 4.9226138,8.6114829 0 0 1 4.92218,-8.61187 4.9226138,8.6114829 0 0 1 3.46645,2.50165 v -3.49229 c -1.17799,-1.21747 -2.75006,-1.91826 -4.77338,-1.91823 l -5.79138,0.5178 c -3.50666,0.31361 -6.38645,5.00199 -6.38617,11.17193 0,4.02255 1.2197,7.55476 3.04322,9.52241 -0.58901,0.003 -1.209,0.005 -1.66863,0.0129 -0.34163,0.006 -0.62997,0.0125 -0.84543,0.0217 -0.10772,0.005 -0.19553,0.009 -0.27182,0.0155 -0.0381,0.003 -0.0733,0.008 -0.11523,0.0139 -0.0419,0.006 -0.0358,-0.0397 -0.25787,0.0837 -0.034,0.0189 -0.0718,0.029 -0.21446,0.0315 -0.14265,0.003 -0.40453,-0.043 -0.74414,0.14831 -0.087,0.049 -0.0704,0.0661 -0.11524,0.11111 -0.0107,-9.2e-4 0.006,-2.6e-4 -0.008,-0.002 -0.1079,-0.0135 -0.29827,-0.0569 -0.56793,-0.004 -0.55357,0.1095 -1.1114,0.17637 -1.73478,0.38447 0.003,-10e-4 -0.15378,0.0146 -0.3669,-0.006 -0.21312,-0.0203 -0.46951,-0.0691 -0.80098,-0.0217 -0.36284,0.0519 -0.61456,0.15867 -0.77929,0.19172 -0.10709,0.0214 -0.31499,0.009 -0.58962,-0.0196 -0.27463,-0.0288 -0.61849,-0.0745 -1.01751,0.0274 -0.37566,0.096 -0.49532,0.22465 -0.41806,0.19895 0.0555,-0.0185 -0.0114,-0.002 -0.16589,-0.0212 -0.15443,-0.0195 -0.38828,-0.073 -0.71106,0.008 -0.20759,0.0521 -0.31345,0.1367 -0.37104,0.1757 -0.0704,0.009 -0.21027,0.008 -0.4222,-0.0134 -0.22764,-0.0234 -0.52286,-0.0653 -0.87695,0.0232 -1.15256,0.28813 -2.262,0.74169 -3.28868,1.09554 -0.0417,-0.004 -0.0981,-0.009 -0.16795,-0.0155 -0.0796,-0.008 -0.16427,-0.0174 -0.27389,-0.0155 -0.0548,9.7e-4 -0.1146,0.002 -0.2067,0.0232 -0.0921,0.0208 -0.2507,0.0453 -0.41807,0.25994 h -0.002 c -0.01,0.0128 9.8e-4,0.0202 -0.008,0.0331 -0.14565,0.0305 -0.29344,0.0657 -0.58032,0.10335 -0.40774,0.0535 -0.76385,0.0685 -1.1343,0.19172 -0.14435,0.0481 -0.40241,0.0708 -0.74052,0.18345 -0.16691,0.0558 -0.16059,0.11402 -0.22635,0.18759 -0.0768,0.0209 -0.10241,0.0166 -0.3085,0.0155 -0.23349,-0.001 -0.6768,0.12177 -0.96325,0.40824 -0.25896,0.25882 -0.25896,0.67859 0,0.93741 0.25882,0.25896 0.67859,0.25896 0.93741,0 0.0257,-0.0257 0.0102,-0.02 0.008,-0.0253 0.004,10e-4 10e-4,0.004 0.01,0.004 0.0801,4.4e-4 0.40547,0.0403 0.77773,-0.0842 0.17802,-0.0595 0.17718,-0.12219 0.24184,-0.19895 0.14908,-0.0416 0.37137,-0.0681 0.68368,-0.17209 -0.007,0.002 0.46317,-0.0772 0.88677,-0.1328 0.4236,-0.0556 0.80158,-0.0649 1.2268,-0.26924 h 0.002 c 0.044,-0.0212 0.0338,-0.0836 0.0718,-0.11937 0.0371,0.004 0.0704,0.007 0.11162,0.01 0.0825,0.006 0.10465,0.0622 0.39636,-0.0372 1.10676,-0.37661 2.22896,-0.83308 3.28714,-1.09761 0.0508,-0.0127 0.20184,-0.0126 0.42013,0.01 0.21829,0.0224 0.50039,0.0653 0.84749,-0.004 0.22835,-0.0457 0.35649,-0.14405 0.41961,-0.18552 0.004,-0.002 0.002,-9.7e-4 0.006,-0.003 -0.0108,0.006 0.0474,0.002 0.19792,0.0207 0.16818,0.0213 0.42095,0.0737 0.75345,-0.0372 0.2523,-0.0839 0.36705,-0.15236 0.36535,-0.17105 0.10053,-0.0186 0.26667,-0.0205 0.5116,0.005 0.26446,0.0277 0.59617,0.0785 0.98857,0 0.33531,-0.0673 0.56491,-0.15746 0.70693,-0.17776 0.0383,-0.006 0.24075,0.006 0.48627,0.0295 0.24552,0.0233 0.54673,0.0658 0.91416,-0.0568 0.46417,-0.15495 0.94777,-0.21969 1.54306,-0.33642 -0.53758,0.0706 -0.9501,0.29006 -1.27951,0.42272 -1.5707,0.63244 -3.1561,1.25193 -4.72064,1.99006 a 0.66266501,0.66266501 0 0 0 -0.31626,0.88263 0.66266501,0.66266501 0 0 0 0.88263,0.31678 c 1.51069,-0.71273 3.07164,-1.32545 4.65036,-1.96112 0.40243,-0.16206 0.72044,-0.30768 0.96274,-0.33797 0.99395,-0.12429 2.11871,0.12184 3.32434,0.21497 a 0.66273128,0.66273128 0 0 0 0.002,0 c 1.04454,0.0807 2.17719,0.20091 3.32228,0.10904 0.72211,-0.0579 1.45163,-0.36345 2.00608,-0.77928 a 0.66273128,0.66273128 0 0 0 0,-5.2e-4 0.66273128,0.66273128 0 0 0 0,-5.1e-4 0.66273128,0.66273128 0 0 0 0,-5.2e-4 c 0.17653,-0.13244 0.24937,-0.24877 0.29662,-0.30696 0.0123,-0.0151 0.013,-0.014 0.0196,-0.0202 0.38938,-0.18985 1.02521,-0.43543 1.3162,-0.4718 0.55495,-0.0693 1.28789,0.004 2.0159,0.004 h 3.32796 c 0.43197,0 0.91859,0.0412 1.45521,-0.002 0.71744,-0.0576 1.26214,-0.17732 1.79679,-0.10697 0.002,5e-4 0.002,9.5e-4 0.004,0.002 0.0389,0.0105 0.0952,0.0263 0.16174,0.045 0.13304,0.0373 0.30837,0.0872 0.48266,0.13694 0.34858,0.0995 0.73874,0.21126 0.71107,0.20309 a 0.66273128,0.66273128 0 0 0 0.002,0 c 1.37107,0.40451 2.15438,0.66761 3.71295,1.0604 1.83122,0.46147 3.65108,0.81671 5.36143,1.40663 0.86654,0.29889 1.74481,0.75644 2.7187,1.11104 0.62786,0.22862 1.25479,0.42921 1.8712,0.63097 1.04036,0.34056 1.93903,0.25358 2.63085,0.48421 a 0.66266501,0.66266501 0 0 0 0.83767,-0.41961 0.66266501,0.66266501 0 0 0 -0.41754,-0.83819 c -1.03175,-0.34395 -1.93094,-0.25446 -2.63913,-0.48628 -0.62123,-0.20334 -1.23406,-0.40007 -1.82987,-0.61702 -0.86272,-0.31413 -1.74842,-0.77715 -2.7404,-1.11931 -0.28641,-0.0988 -0.57344,-0.18916 -0.86093,-0.27595 0.087,-0.0156 0.17406,-0.0317 0.25942,-0.0424 a 0.66273128,0.66273128 0 0 0 0,-5.2e-4 0.66273128,0.66273128 0 0 0 0,-5.2e-4 0.66273128,0.66273128 0 0 0 0,-5.1e-4 0.66273128,0.66273128 0 0 0 0,-5.2e-4 c 0.80077,-0.10008 1.72325,0.006 2.64066,0.0956 0.76542,0.0749 1.51241,0.004 2.14871,0.004 0.64461,0 1.36442,0.0553 2.10943,-0.002 0.76544,-0.0588 1.36731,-0.31318 1.96061,-0.55087 0.0324,0.005 0.0374,0.0107 0.0899,0.01 0.12678,-0.002 0.34883,-0.0633 0.49402,-0.20877 a 0.66273128,0.66273128 0 0 0 0.002,-0.002 c 0.004,-0.004 4.8e-4,-0.008 0.004,-0.0119 0.042,-0.0144 0.0101,-9.7e-4 0.0584,-0.01 0.14304,-0.0261 0.29627,-0.0462 0.39636,-0.0605 0.32625,-0.0466 0.78937,0.0386 1.37925,0.006 0.34293,-0.0192 0.53178,-0.0952 0.57981,-0.0977 a 0.66273128,0.66273128 0 0 0 0.002,0 c 0.29734,-0.0163 0.59215,-0.0268 0.88419,-0.0284 0.87669,1.00546 1.87882,1.58255 2.94814,1.56786 0.50613,-0.007 2.89614,0.15082 4.97747,0.16795 1.33902,2e-5 2.51217,-0.36454 3.52279,-1.02423 0.22223,-0.004 0.45208,-0.0108 0.67127,-0.0108 0.63259,0 1.24607,-0.0685 1.68155,-0.006 0.24564,0.0351 0.55554,0.18141 0.84956,0.36742 0.2476,0.15643 0.36065,0.12482 0.46509,0.12867 0.10444,0.004 0.1911,-0.002 0.2713,-0.008 0.0802,-0.006 0.15358,-0.0136 0.20154,-0.0176 0.0145,-0.001 0.0197,-6.1e-4 0.0269,-5.1e-4 0.08,0.0122 0.15334,0.024 0.1819,0.03 0.0359,0.007 0.0663,0.0432 -0.0837,-0.0408 -0.0375,-0.021 -0.0942,-0.0488 -0.17415,-0.14263 -0.02,-0.0235 -0.0628,-0.0867 -0.0625,-0.0863 2.5e-4,4e-4 -0.0565,-0.12338 -0.0563,-0.12299 1.1e-4,3e-4 -0.005,-0.0675 -0.01,-0.12867 0.13296,0.17305 0.44697,0.58187 0.447,0.58187 4e-5,1e-5 0.0604,0.008 0.0605,0.008 1.2e-4,10e-6 0.0332,0.002 0.0413,0.002 0.0327,5.9e-4 0.036,3.8e-4 0.045,0 0.005,-2.2e-4 0.0105,-0.002 0.0155,-0.002 -8.1e-4,4e-5 0.0127,-5e-4 0.01,0 0.006,-2.3e-4 0.009,3.6e-4 0.0212,0 0.0696,-0.002 0.24408,-0.006 0.5979,-0.006 h 3.20701 c 0.55747,0 1.3473,-0.0236 1.77819,0.0579 0.0282,0.018 0.11078,0.0593 0.16898,0.11576 0.10627,0.10308 0.15019,0.17023 0.31057,0.31057 0.78726,0.68954 1.5952,1.19229 2.13114,1.83607 a 0.66266501,0.66266501 0 0 0 0.93121,0.0858 0.66266501,0.66266501 0 0 0 0.0863,-0.93328 c -0.7203,-0.86522 -1.60413,-1.3965 -2.27532,-1.98437 a 0.66273128,0.66273128 0 0 0 -0.002,0 c 0.0732,0.0641 -0.10984,-0.12205 -0.25786,-0.26562 -0.14798,-0.14347 -0.21821,-0.31892 -0.66039,-0.43347 -0.79717,-0.20656 -1.71577,-0.11524 -2.21072,-0.11524 h -3.20704 c -0.26724,0 -0.3629,0.002 -0.47077,0.004 -0.0271,-0.005 -0.0789,-0.0308 -0.10956,-0.0372 -0.0818,-0.0171 -0.17903,-0.0337 -0.31212,-0.0527 a 0.66273128,0.66273128 0 0 0 -0.002,0 c -0.17949,-0.0251 -0.20977,-0.006 -0.2775,0 -0.0677,0.006 -0.13189,0.0131 -0.18966,0.0176 -0.0523,0.004 -0.0927,0.004 -0.1111,0.004 -0.33483,-0.2006 -0.70654,-0.416 -1.18752,-0.48472 -0.35136,-0.0502 -0.69412,-0.0516 -1.01338,-0.0408 0.0492,-0.0583 0.0987,-0.11598 0.14676,-0.17622 0.056,-0.002 0.1196,8e-4 0.17157,-0.003 0.59344,-0.0448 1.0668,-0.089 1.50585,-0.30851 -0.0369,0.0184 0.181,-0.0143 0.50384,0.0351 0.32284,0.0494 0.72468,0.17017 1.23404,0 0.57767,-0.19286 1.41056,-0.004 2.42414,-0.37879 -0.0281,0.0104 0.0969,-0.008 0.30076,0.0155 0.20389,0.024 0.47175,0.0864 0.82992,0.0134 0.60937,-0.12365 1.33706,-0.12922 2.11718,-0.39222 -0.10161,0.0343 -0.0678,0.009 0.0605,0.0274 0.12827,0.0184 0.35096,0.0799 0.6718,-0.0274 0.16624,-0.0556 0.16109,-0.11219 0.22686,-0.18552 0.17273,-0.0481 0.37263,-0.0409 0.70693,-0.0139 0.35461,0.0285 0.85895,0.0497 1.37304,-0.20877 -0.19537,0.0983 -0.0385,0.0229 0.11317,0.0331 0.0476,0.003 0.11178,0.007 0.16175,0.0119 0.50734,0.98014 1.12027,1.57715 1.78956,1.56528 0.25429,-0.004 1.4549,0.0979 2.50062,0.10903 0.52826,2e-5 1.004089,-0.14878 1.430919,-0.41754 0.31636,0.14842 0.50425,0.0663 0.60152,0.0439 0.22808,0.10487 0.43264,0.19197 0.6351,0.29094 0.30357,0.14852 0.55699,0.0913 0.67179,0.0724 0.0214,-0.004 0.0181,-0.005 0.0186,-0.007 0.0746,0.0526 0.20633,0.15396 0.4501,0.18293 0.50064,0.0617 0.84069,-0.0132 1.0511,0 0.0664,0.0504 0.16751,0.14265 0.40411,0.1819 1.08322,0.17989 2.02114,-0.14284 2.54506,-0.0119 1.30704,0.32665 2.43059,0.16299 3.40238,0.37672 0.11627,0.0256 0.18586,0.0864 0.32814,0.26975 0.14228,0.18331 0.27021,0.50497 0.73226,0.72864 1.00696,0.4876 2.34151,1.00255 3.43545,1.33945 0.79305,0.24417 1.47806,0.38065 2.28926,0.40463 0.36571,0.0106 0.67083,-0.27715 0.68161,-0.64285 0.0106,-0.36571 -0.27715,-0.67083 -0.64285,-0.68162 -0.69283,-0.0205 -1.21194,-0.12238 -1.93735,-0.34571 -1.01832,-0.31361 -2.3275,-0.81988 -3.24786,-1.26556 0.0847,0.041 -0.0624,-0.0894 -0.26407,-0.34933 -0.20172,-0.25987 -0.54624,-0.63233 -1.08986,-0.75189 -1.27114,-0.27958 -2.3685,-0.11795 -3.36672,-0.36742 -1.0811,-0.27024 -2.02658,0.0683 -2.6019,-0.01 -0.0698,-0.0519 -0.1902,-0.15779 -0.44545,-0.18965 -0.50353,-0.063 -0.84299,0.0133 -1.0542,0 -0.0573,-0.0424 -0.14425,-0.12001 -0.34985,-0.17157 -0.27427,-0.0687 -0.43744,-0.0131 -0.52142,0.004 -0.21701,-0.10241 -0.40683,-0.18363 -0.59738,-0.27233 0.97591,-1.51878 1.48042,-4.01406 1.48053,-7.01611 2e-5,-4.994 -1.06428,-8.83622 -3.717599,-8.83616 l -2.72645,0.37879 c 0.21573,-1.32349 0.0763,-2.58493 0.006,-3.76049 a 0.66266501,0.66266501 0 0 0 0.0315,-0.34468 c 0.31485,-1.17035 0.29565,-2.43796 0.25373,-3.67058 5.4e-4,-0.001 0.006,-0.004 0.006,-0.006 0.031,-0.0839 0.0451,-0.15203 0.0605,-0.23461 0.0613,-0.33033 0.10945,-0.89465 0.14418,-2.19883 0.0604,-2.26882 -0.0493,-3.70632 -0.2558,-4.7191 -0.20655,-1.01271 -0.53873,-1.61444 -0.81439,-2.04842 -0.50135,-0.78932 -1.32613,-2.10455 -3.86901,-2.68407 -0.60285,-0.13739 -1.40427,-0.63745 -2.36317,-1.10536 -0.87851,-0.42868 -1.95154,-0.76328 -3.1719,-0.66611 -0.75466,-0.62564 -1.44218,-1.02917 -2.23035,-1.48828 -0.86555,-0.50418 -1.90065,-1.14896 -3.47266,-2.48409 -1.31829,-1.11964 -2.70206,-1.49104 -3.89537,-1.48673 -0.39776,10e-4 -0.77432,0.0446 -1.12034,0.11576 -0.69203,0.14237 -1.2691,0.38592 -1.69344,0.61701 -0.21217,0.11555 -0.38602,0.22796 -0.52348,0.33022 -0.0511,0.038 -0.0936,0.0734 -0.13694,0.1111 -0.27859,-0.004 -0.58543,0.0117 -0.91003,0.0398 l -0.9064,-0.88728 0.63562,-0.64906 -4.84725,-4.74596 -0.63562,0.64905 -0.68161,-0.66766 c 2.88077,-5.58366 4.97851,-14.41255 4.97851,-14.41255 a 0.35685618,0.35685618 0 0 0 0.002,-0.008 c 10e-4,-0.006 3.1e-4,-0.0131 0.002,-0.0196 l 0.002,-0.006 c 3.4e-4,-0.002 0.002,-0.004 0.002,-0.006 a 0.35685618,0.35685618 0 0 0 0.002,-0.0217 0.35685618,0.35685618 0 0 0 0.006,-0.0465 c 1e-5,-6.5e-4 -2e-5,-0.001 0,-0.002 0.006,-0.15414 -0.14865,-0.22292 -0.2496,-0.33022 0.008,-0.003 0.0388,-0.0155 0.0388,-0.0155 l -0.0465,-0.0858 -0.0258,-0.0315 -0.006,-0.008 c -6e-5,-5e-5 -0.0681,-0.0547 -0.0682,-0.0548 -1.3e-4,-8e-5 -0.0192,-0.0103 -0.0253,-0.0134 -0.0275,-0.0141 -0.028,-0.0116 -0.0351,-0.014 -0.007,-0.002 -0.005,-0.0138 -0.0119,-0.0155 a 0.35685618,0.35685618 0 0 0 -0.0232,-0.002 c -0.002,-8.9e-4 -0.009,-0.003 -0.0372,-0.0233 -0.069,-0.0506 -0.21811,-0.18544 -0.39274,-0.54673 -0.34777,-0.7195 -0.76203,-2.32156 -0.74776,-5.55109 0.002,-0.12916 -0.0723,-0.23794 -0.1509,-0.33796 -0.10639,-0.18073 -0.28728,-0.31502 -0.49971,-0.30076 a 0.35685618,0.35685618 0 0 0 -0.01,0 c -2.0373,0.19297 -3.2978,-0.10816 -4.03128,-0.42581 -0.3667,-0.15882 -0.60364,-0.32375 -0.74414,-0.43925 -0.14427,-0.11859 -0.15244,-0.14056 -0.15244,-0.14056 v 0.002 c -0.088,-0.1247 -0.22222,-0.20949 -0.37311,-0.23254 a 0.35685618,0.35685618 0 0 0 -0.01,-0.002 z m -0.36535,1.69344 c 2.28891,9.85387 1.9273,16.47149 1.60352,19.36729 -1.56055,-2.74997 -5.38117,-9.19497 -10.32805,-15.42593 3.24847,-0.32976 5.61688,-1.34978 7.11119,-2.41174 0.85107,-0.60482 1.23208,-1.08693 1.61334,-1.52962 z m 1.17564,0.13487 c 0.009,0.004 0.0145,0.008 0.0238,0.0119 0.82214,0.35605 2.12522,0.60806 3.92173,0.52504 0.005,0.89255 0.0199,9.08358 -1.9942,16.0941 -0.0868,0.30213 -0.22763,0.67459 -0.33383,1.01751 0.24687,-3.50829 0.28979,-9.23918 -1.61747,-17.64853 z m -10.71666,4.59197 c 5.30808,6.70522 9.36861,13.73628 10.52339,15.80834 -7.19842,-1.7324 -16.78225,-5.34258 -18.97662,-6.19135 3.83995,-2.93232 6.10654,-5.49907 7.30292,-7.36493 0.60803,-0.94832 0.93724,-1.69118 1.15031,-2.25206 z m 15.53135,1.19321 c 0.0319,0.0754 0.051,0.23102 0.0837,0.29869 0.217,0.44898 0.45378,0.70782 0.68007,0.8909 -0.14833,0.60038 -0.80036,2.90178 -1.69757,5.73609 0.46137,-2.53493 0.78327,-4.83687 0.93379,-6.92568 z m 1.43144,0.37672 c -5e-5,0 0.0214,0.002 0.0295,0.002 a 0.35685618,0.35685618 0 0 0 -0.002,0.002 0.35685618,0.35685618 0 0 0 -0.0232,-0.002 c -0.0117,9.6e-4 -0.0235,0.002 -0.0351,0.004 0.0108,-0.002 0.031,-0.006 0.031,-0.006 z m -0.0408,0.008 c 0.001,-2.1e-4 0.003,2e-4 0.004,0 h 0.0584 a 0.35685618,0.35685618 0 0 0 -0.12712,0.10336 c -0.0133,-0.0307 -0.0351,-0.0822 -0.0351,-0.0822 -3e-5,0 0.0583,-0.0127 0.0997,-0.0212 z m -20.57342,0.27182 h 5.2e-4 l 0.0279,0.0134 c -0.0854,0.29538 -0.18537,0.74037 -0.38861,1.19683 l -0.48369,-0.45169 c 0.28519,-0.28726 0.57357,-0.54142 0.84388,-0.75861 z m 20.63182,0.0718 -0.001,0.008 a 0.20389752,0.20389752 0 0 0 -5.2e-4,0 0.20389752,0.20389752 0 0 0 -0.016,-0.002 c 0,0 0.0159,-0.005 0.0176,-0.006 z m -22.53971,2.00143 0.49816,0.46612 c -0.38437,0.30776 -0.77194,0.53178 -1.01958,0.7152 l -0.0444,-0.0212 c 0.1413,-0.41153 0.33717,-0.79921 0.56586,-1.16013 z m -4.54392,5.76034 a 0.35685618,0.35685618 0 0 0 -0.01,0.0253 c -7.2e-4,0.0164 -7.2e-4,0.0321 0,0.0486 z m 1.36116,1.02113 c 2.35717,0.91135 11.2947,4.25057 18.45727,6.03735 -11.09222,3.20875 -18.20711,3.38867 -20.39462,3.34554 2.90136,-3.59441 2.41371,-7.58516 1.93735,-9.38289 z m 17.30075,7.50806 c -8.04319,5.89493 -15.87041,8.01468 -17.34571,8.35557 0.0869,-2.0802 -0.43941,-3.66238 -1.12706,-4.66225 -0.22609,-0.32874 -0.42779,-0.47681 -0.64854,-0.70125 2.2809,0.0336 8.90591,-0.20352 19.12131,-2.99207 z m 6.33967,4.28346 1.048,1.02578 c -0.33881,0.0864 -0.67769,0.17269 -1.0325,0.27699 z m 8.43979,0.57775 c 0.30209,-0.005 0.619,0.0218 0.94723,0.094 v -5.2e-4 c 0.65648,0.14455 1.35987,0.46981 2.08566,1.08624 1.63116,1.38535 2.76618,2.09903 3.66231,2.62103 0.85321,0.49699 1.45527,0.81425 2.13837,1.39836 0.15655,0.36232 0.73874,1.92971 0.12609,3.9858 -3.52264,-1.78586 -7.83974,-3.42613 -12.83539,-4.30413 -0.002,-0.75979 0.14205,-1.44547 0.32815,-2.03656 l 1.74976,1.71307 1.06143,-1.08417 -2.16782,-2.12235 c 0.17088,-0.29914 0.30075,-0.48163 0.30075,-0.48163 a 0.66266501,0.66266501 0 0 0 0.0274,-0.0403 c 0.0102,-0.008 0.0118,-0.0101 0.0253,-0.0202 0.0776,-0.0577 0.20549,-0.1405 0.36691,-0.22841 0.32283,-0.17581 0.78437,-0.37153 1.32446,-0.48265 0.27005,-0.0556 0.5573,-0.0925 0.85938,-0.0977 z m -6.35672,0.0935 0.0971,0.0951 c -0.0793,0.0163 -0.15864,0.0327 -0.23926,0.0501 z m -14.30765,0.1018 c -2.76001,1.88534 -4.84526,3.16849 -5.00745,3.25561 -0.70883,-0.0846 -1.7573,-0.0175 -2.7559,0.0274 2.11655,-0.69941 4.61269,-1.63554 7.76335,-3.283 z m 15.54892,1.11414 0.51987,0.5085 c -0.30585,0.76846 -0.57565,1.74558 -0.60307,2.86132 -0.32343,-0.0114 -0.66177,-0.004 -1.02009,0.0279 -0.66502,0.0587 -1.39633,0.19295 -2.15439,0.35089 l -0.0351,-2.94711 c 0.11309,-0.0348 0.22514,-0.0758 0.33796,-0.10904 1.04811,-0.30891 2.08056,-0.542 2.95486,-0.69246 z m -5.53971,1.59267 -0.0636,2.7218 c -1.07612,0.29673 -2.14206,0.63044 -3.10989,0.96635 -0.0104,-0.70265 0.0958,-1.25636 0.21704,-1.65882 0.11601,-0.38509 0.22928,-0.60536 0.28681,-0.70383 0.64982,-0.44383 1.60729,-0.90078 2.6696,-1.3255 z m -4.60747,1.34359 c 0.17749,-0.002 0.32087,0.01 0.47697,0.0171 -0.0328,0.0897 -0.0646,0.18497 -0.0951,0.28628 -0.16978,0.56359 -0.30619,1.32986 -0.26768,2.27274 -1.69156,0.016 -3.24496,0.27522 -4.41007,0.58445 -0.32645,0.0867 -0.62003,0.17492 -0.88522,0.26045 0.0496,-0.24459 0.0995,-0.48335 0.14677,-0.73484 0.50966,-1.39078 1.70989,-2.09668 3.05252,-2.44171 0.67457,-0.17334 1.3799,-0.2384 1.98179,-0.24443 z m -17.61856,0.58032 c 0.0111,0.005 0.0222,0.01 0.0336,0.0139 a 0.35685618,0.35685618 0 0 0 0.0155,0.002 z m 43.16894,0.58757 c 0.6656,0.0532 1.27971,0.28504 1.89756,0.58652 0.86173,0.4205 1.68158,0.98682 2.64841,1.20716 2.2345,0.50924 2.50273,1.24297 3.04685,2.09962 0.24872,0.39158 0.45794,0.7465 0.63303,1.60507 0.1751,0.85857 0.28726,2.20761 0.22841,4.41833 -0.006,0.20486 -0.0137,0.2854 -0.0202,0.45476 -1.40073,-1.26356 -4.33842,-3.67454 -8.57157,-5.97225 0.60833,-1.84841 0.38654,-3.45598 0.13746,-4.39921 z m -15.83883,0.61805 c 0.0808,-0.002 0.15004,1.7e-4 0.22531,0 -0.27094,1.18536 -0.73794,3.70288 -0.51831,6.21202 -0.79198,-0.19868 -1.61112,-0.34534 -2.44998,-0.44235 l -0.0636,-5.39502 c 1.05215,-0.21982 2.04826,-0.35093 2.80654,-0.37465 z m 1.55184,0.1695 c 4.97399,0.88632 9.2452,2.5452 12.69845,4.331 0.15493,0.90628 0.5242,3.59402 -0.10335,5.72419 -3.39419,-1.16703 -7.71399,-2.43461 -13.07052,-3.66902 -0.31525,-2.51211 0.22271,-5.28274 0.47542,-6.38617 z m -6.75204,0.80718 -0.10955,4.67517 c -0.95907,0.0215 -1.93581,0.1078 -2.92437,0.26355 -0.19905,-0.87879 -0.24596,-1.7308 -0.21704,-2.44533 0.0264,-0.65232 0.1218,-1.20274 0.19792,-1.52136 0.93016,-0.33165 1.98482,-0.66831 3.05304,-0.97203 z m -4.43849,1.10949 c -0.065,0.37032 -0.11554,0.81514 -0.13642,1.33119 -0.0296,0.73018 0.008,1.58449 0.18345,2.48719 -2.29228,-0.11111 -3.84,0.0251 -4.83588,0.21032 -0.34065,0.0634 -0.60051,0.13108 -0.82372,0.19844 -0.1785,-1.12555 -0.1013,-2.15107 0.0703,-3.17345 0.008,-0.003 0.009,-0.004 0.0171,-0.007 0.34749,-0.13464 0.86284,-0.31047 1.49603,-0.47853 1.07552,-0.28546 2.49346,-0.54491 4.02921,-0.56792 z m 25.36848,3.22203 c 5.12065,2.88901 8.04051,5.76445 8.40569,6.13554 a 0.66273128,0.66273128 0 0 0 -0.0553,0.1478 c 0.0337,1.0397 0.0552,2.04423 -0.0594,2.89491 -0.8403,-0.48984 -2.29838,-1.27579 -4.66897,-2.28151 -1.11637,-0.47363 -2.44453,-0.99233 -3.95066,-1.53479 0.59802,-1.91172 0.49812,-4.01136 0.32866,-5.36195 z m -30.90302,1.43092 c 0.006,0.005 0.0233,0.0202 0.0233,0.0202 -1.3e-4,-1.4e-4 0.1153,0.18776 0.11524,0.18759 -2e-5,-5e-5 0.004,0.0376 0.006,0.0491 a 0.66266501,0.66266501 0 0 0 -0.13075,-0.18191 c -0.006,-0.0254 -0.008,-0.0496 -0.0134,-0.0749 z m 12.44627,0.36587 c 0.8348,0.10399 1.64573,0.26184 2.42465,0.47336 -0.18782,0.88603 -0.41506,2.49117 -0.2129,4.53202 -0.73256,-0.13316 -1.4499,-0.22425 -2.15646,-0.29507 z m -12.27471,0.15813 c 9.6e-4,0.009 0.004,0.0429 0.004,0.0429 1e-5,-4e-5 -0.005,0.0147 -0.006,0.0176 a 0.66266501,0.66266501 0 0 0 0.002,-0.0605 z m -0.045,0.18965 c -0.006,0.0163 -0.0156,0.0451 -0.0155,0.045 3e-4,-5.7e-4 -0.0422,0.0701 -0.0589,0.092 -0.0263,0.0345 -0.0104,0.007 -0.0274,0.0269 a 0.66266501,0.66266501 0 0 0 0.1018,-0.16381 z m -10.36681,0.2434 v 11.99859 h 13.12737 v -11.99823 z m 13.69736,0.0171 v 11.99823 l 5.84874,0.0698 -0.0181,-11.03963 z m 12.69483,0.17983 c 5.42446,1.25711 9.74321,2.54201 13.1036,3.71451 0.0748,0.13331 0.20308,0.40904 0.29455,0.86661 0.11673,0.5839 0.14802,1.41905 -0.2036,2.50579 -1.03581,-0.29241 -2.17245,-0.5821 -3.39101,-0.86558 -1.12859,-1.33225 -2.61385,-2.09706 -4.50825,-2.09703 l -4.35891,0.46922 c -0.35684,-0.0506 -0.70542,-0.10261 -1.07229,-0.15141 -0.25613,-2.0583 -0.0396,-3.62111 0.13591,-4.44211 z m 14.69058,4.28088 c 1.1909,0.44099 2.24658,0.8621 3.16466,1.2516 2.80947,1.19193 4.3529,2.08052 4.96662,2.46187 0.0639,1.06304 0.17048,2.06683 0.0894,3.0179 -0.83904,-0.51896 -2.24279,-1.28746 -4.38216,-2.13992 -1.1323,-0.45119 -2.49912,-0.92768 -4.06642,-1.4056 0.40898,-1.28805 0.39302,-2.36351 0.23668,-3.14554 -0.003,-0.0138 -0.006,-0.0267 -0.009,-0.0403 z m -18.3255,0.97565 c 0.48725,0.0509 0.9792,0.11811 1.47485,0.19844 -0.51724,0.36222 -1.00507,0.85158 -1.45521,1.44797 z m 10.19783,2.2655 a 4.7743616,10.059762 0 0 1 4.77387,10.06037 4.7743616,10.059762 0 0 1 -4.77387,10.05933 4.7743616,10.059762 0 0 1 -4.77439,-10.05933 4.7743616,10.059762 0 0 1 4.77439,-10.06037 z m 4.30671,0.32039 c 0.75079,0.18932 1.47205,0.3804 2.14251,0.57206 0.12001,0.89292 0.33257,3.30105 -0.47232,5.41828 l -0.0568,-0.0119 c -0.26483,-2.32878 -0.78849,-4.37452 -1.61334,-5.97845 z m 3.53209,0.98961 c 1.39677,0.43502 2.61655,0.86597 3.6375,1.27279 2.73231,1.08873 4.15068,1.97731 4.70669,2.36781 -6.5e-4,0.0219 -0.004,0.0581 -0.005,0.0811 -0.54421,0.6986 -1.00258,1.77746 -1.32292,3.11712 l -7.56594,-1.56631 c 0.7111,-2.00353 0.66686,-4.07147 0.54932,-5.27255 z m 13.565059,4.59403 c 1.32483,1.4e-4 1.93381,2.98004 1.93373,6.58616 -5e-5,3.60586 -0.609,6.47285 -1.93373,6.47299 -1.324739,-1.4e-4 -1.759009,-2.89039 -1.759059,-6.49624 -9e-5,-3.60612 0.43422,-6.56277 1.759059,-6.56291 z m -20.646279,1.48312 a 1.3769199,2.9012225 0 0 0 -1.37718,2.90111 1.3769199,2.9012225 0 0 0 1.37718,2.90112 1.3769199,2.9012225 0 0 0 1.37666,-2.90112 1.3769199,2.9012225 0 0 0 -1.37666,-2.90111 z m -31.45338,0.0661 h 17.76791 c -0.036,0.33824 -0.0628,0.684 -0.0858,1.03301 h -17.59945 c -0.0203,-0.35034 -0.0481,-0.69446 -0.0827,-1.03301 z m 36.80499,1.50378 8.42842,0.95085 c -0.0635,0.49541 -0.10884,1.01333 -0.13642,1.55029 h -8.2982 c 0.0165,-0.40807 0.0284,-0.82037 0.0284,-1.24179 0,-0.42631 -0.009,-0.84464 -0.0222,-1.25935 z m 15.575789,1.72909 a 0.69180369,1.8830537 0 0 0 -0.69195,1.88309 0.69180369,1.8830537 0 0 0 0.69195,1.88309 0.69180369,1.8830537 0 0 0 0.69195,-1.88309 0.69180369,1.8830537 0 0 0 -0.69195,-1.88309 z m -52.363209,1.54409 h 17.67799 c 0.1946,2.70133 0.78188,5.13391 1.63297,7.02903 -0.11645,-0.25661 -0.23893,-0.50152 -0.34519,-0.77773 -0.52531,-0.001 -1.01857,-0.0118 -1.29192,-0.063 -0.0563,-0.0372 -0.17031,-0.12807 -0.38292,-0.18138 h -0.002 c -0.87278,-0.21816 -1.79885,-0.0196 -2.34197,-0.0196 h -5.4746 c -0.40726,0 -0.85967,0.0592 -1.29295,0.0858 -0.43327,0.0266 -0.84329,0.002 -0.99994,-0.0506 -0.32045,-0.10871 -0.80262,-0.20269 -1.35392,-0.26562 -0.27565,-0.0315 -0.55743,-0.0521 -0.82786,-0.045 -0.27043,0.007 -0.52115,0.0183 -0.81855,0.17002 -0.24066,0.12284 -1.1805,0.16519 -2.13269,0.0977 -0.95218,-0.0675 -1.8833,-0.23049 -2.70888,0.0506 -0.16155,0.0551 -0.22789,0.0999 -0.30695,0.14469 -0.12375,-0.0128 -0.25782,-0.0443 -0.52917,0.01 -0.29628,0.0592 -0.48508,0.19674 -0.6072,0.27699 -0.12211,0.0803 -0.1819,0.10567 -0.1664,0.1018 0.0513,-0.0128 -0.0649,0.006 -0.17828,0.0176 1.34432,-1.61394 2.16872,-3.889 2.44998,-6.58099 z m 36.6174,1.33894 h 8.44961 c 0.0724,1.76232 0.35097,3.34491 0.75758,4.61367 -0.0944,0.0173 -0.1974,0.0459 -0.32608,0.11059 -0.19324,0.0972 -0.35916,0.0955 -0.67231,0.0703 -0.31314,-0.0252 -0.76049,-0.0923 -1.2733,0.0786 h -0.002 c -0.15514,0.0519 -0.14451,0.10406 -0.21084,0.17363 -0.002,-0.002 0.0388,-0.005 -0.0372,-0.0155 -0.12878,-0.0185 -0.35074,-0.0794 -0.6718,0.0289 -0.52253,0.17616 -1.19174,0.19383 -1.95905,0.34985 -0.007,0.002 -0.17901,-0.004 -0.4098,-0.0315 -0.23078,-0.0271 -0.5365,-0.0816 -0.91622,0.0589 -0.55997,0.20712 -1.3692,0.0249 -2.3828,0.36329 0.002,-5.2e-4 -0.27229,0.002 -0.61547,-0.0506 -0.34317,-0.0525 -0.78166,-0.16855 -1.29449,0.0879 -0.01,0.005 -0.0769,0.0194 -0.12816,0.0315 0.84983,-1.59258 1.41893,-3.58618 1.69241,-5.86941 z m -31.5841,5.69924 c 0.17698,-0.005 0.40895,0.008 0.64234,0.0351 0.46678,0.0533 0.98661,0.17398 1.07849,0.20515 0.50883,0.17262 1.01869,0.14718 1.50585,0.11731 0.48716,-0.0299 0.95571,-0.0822 1.21285,-0.0822 h 5.4746 c 0.7371,0 1.59133,-0.10711 1.98489,-0.0248 0.007,0.004 0.006,0.003 0.0191,0.0114 0.0625,0.0409 0.18903,0.13878 0.41393,0.18552 0.53393,0.11056 1.12174,0.0936 1.69343,0.0935 0.17899,-3e-5 0.33783,0.007 0.50126,0.0124 -0.0674,-0.1323 -0.12401,-0.28692 -0.18861,-0.4253 0.17321,0.37482 0.36012,0.71994 0.55345,1.04851 -0.0112,6.1e-4 -0.0229,4.2e-4 -0.0341,10e-4 h -0.002 c -0.34269,0.0182 -0.53422,0.0949 -0.58394,0.0977 -0.36638,0.0201 -0.87124,-0.0846 -1.49242,0.004 -0.0672,0.01 -0.2541,0.033 -0.447,0.0682 -0.1929,0.0352 -0.35188,0.0238 -0.65267,0.21705 a 0.66273128,0.66273128 0 0 0 -0.0134,0.008 c -0.006,0.004 -0.002,0.0132 -0.008,0.0176 -0.0275,0.008 -0.0146,-0.0106 -0.045,10e-4 -0.65485,0.26194 -1.15727,0.46629 -1.7539,0.51211 -0.60766,0.0467 -1.29531,-0.002 -2.00763,-0.002 -0.72249,0 -1.43119,0.0612 -2.01952,0.004 -0.89474,-0.0876 -1.90693,-0.21979 -2.93367,-0.0915 -0.63506,0.0793 -1.18216,0.24904 -1.67586,0.34778 -0.18497,0.037 -0.26644,0.0512 -0.34572,0.0703 -0.0198,0.005 -0.0367,0.008 -0.0822,0.0232 -0.0227,0.008 -0.0514,0.0154 -0.1173,0.0527 -0.0165,0.009 -0.0582,0.0371 -0.0584,0.0372 -1.2e-4,9e-5 -0.0239,0.0212 -0.047,0.0408 -0.0131,0.001 -0.0219,0.003 -0.0351,0.004 -0.0831,0.008 -0.16858,0.0159 -0.2341,0.0212 -0.0655,0.005 -0.16282,0.008 -0.0863,0.008 a 0.66266501,0.66266501 0 0 0 -0.14934,0.0403 c -0.62753,-0.1479 -1.25748,-0.29376 -1.87172,-0.44855 -1.52525,-0.38439 -2.27384,-0.63732 -3.66231,-1.04696 -0.0677,-0.02 -0.37374,-0.10662 -0.72451,-0.20671 -0.17538,-0.05 -0.35138,-0.10013 -0.48834,-0.13849 -0.0685,-0.0192 -0.12642,-0.0347 -0.17208,-0.047 -0.007,-0.002 -0.0125,-0.003 -0.0191,-0.005 0.21037,-0.0739 0.36507,-0.17264 0.46095,-0.23565 0.11407,-0.075 0.16357,-0.0887 0.1385,-0.0837 0.0124,-0.002 0.15387,0.0114 0.42581,0.0114 0.10075,3.5e-4 0.20025,-0.0223 0.29094,-0.0661 0.17093,-0.0836 0.26312,-0.13922 0.28525,-0.14676 0.22883,-0.0779 1.2143,-0.0531 2.18953,0.016 0.97524,0.0692 1.97363,0.19775 2.82774,-0.23823 -0.0537,0.0274 0.0752,-0.0191 0.25218,-0.0238 z m 11.98842,1.56063 c 0.098,-0.002 0.12609,0.0127 0.12299,0.0119 -0.002,-5.1e-4 -0.13004,0.0176 -0.1664,0.006 0.0118,-0.001 0.0335,-0.0174 0.0434,-0.0176 z m -36.18746,0.10335 c -0.0891,0.0495 -0.12017,0.0592 -0.14469,0.0656 0.0443,-0.004 0.11037,-0.009 0.20102,-0.0129 0.19528,-0.008 0.47682,-0.0152 0.81235,-0.0212 0.67109,-0.012 1.5609,-0.019 2.45722,-0.0196 0.35856,-2.5e-4 0.65325,0.005 1.00097,0.007 0.46373,0.19725 0.94543,0.31048 1.44281,0.31678 -0.33725,0.19493 -0.82173,0.38898 -1.11363,0.41237 a 0.66273128,0.66273128 0 0 0 -0.002,0 c -0.97948,0.0786 -2.04594,-0.0271 -3.11351,-0.10955 -0.83376,-0.0644 -1.7584,-0.25207 -2.74401,-0.25528 0.12457,-0.0529 0.18029,-0.1141 0.22479,-0.17467 0.0254,-0.003 0.0633,-0.01 0.14263,-0.0114 0.18631,-0.003 0.51083,-0.0165 0.83612,-0.1974 z m 35.78697,0.0682 v 5.2e-4 c -0.031,0.044 -0.039,0.0766 -0.0605,0.12454 0.0246,-0.0436 6.2e-4,-0.0767 0.0388,-0.11524 l 0.002,-0.002 c 0.006,-0.006 0.0136,-0.003 0.0196,-0.008 z m -37.82612,0.35967 c -0.001,2.5e-4 0.006,2.9e-4 0.005,5.1e-4 -0.005,6.4e-4 -0.0103,9e-4 -0.0155,0.002 0.004,-7.4e-4 0.007,-10e-4 0.0103,-0.002 z m 37.62509,0.17208 c 0.009,0.0359 0.0169,0.0987 0.0191,0.10542 0.004,0.0121 -0.01,-0.006 -0.0212,-0.1018 -9e-5,-7.5e-4 0.002,-0.003 0.002,-0.004 z m -10.14305,0.20877 c 0.0127,0.005 0.0337,0.012 0.0336,0.0119 -4.4e-4,-1.9e-4 0.19711,0.13665 0.19689,0.13643 -5e-5,-5e-5 0.0308,0.0453 0.061,0.0899 -0.11355,-0.10463 -0.23484,-0.2278 -0.29145,-0.23823 z m 30.21676,0.0568 h 5.2e-4 c -0.0367,0.0529 -0.1132,0.16316 -0.20722,0.29869 0.034,-0.0786 0.0706,-0.16266 0.0703,-0.16226 -4.9e-4,6.6e-4 0.0948,-0.10636 0.13281,-0.13488 0.002,-0.001 0.002,-1.5e-4 0.004,-0.001 z m -19.3554,0.29301 -0.001,0.002 c -0.007,0.003 -10e-4,-0.003 -0.008,0 0.003,-0.001 0.007,-3.6e-4 0.01,-0.002 z m 19.8515,0.89038 c -3.9e-4,3.9e-4 -0.002,0.002 -0.002,0.002 7e-5,-2e-5 -0.0544,0.0103 -0.0724,0.0134 0.0128,-5.9e-4 0.0566,-0.014 0.0739,-0.0155 z m -70.00555,0.13281 c -0.009,0.0145 10e-4,0.0207 -0.01,0.0351 -0.009,0.0116 -0.0108,0.003 -0.0196,0.0134 0.009,-0.0193 0.0214,-0.0295 0.0295,-0.0486 z" />
      </g>
      <g
         id="g1"
         transform="matrix(1.8296754,0,0,1.8296754,145.63372,-135.07348)">
        <path
           id="text35-7-0"
           style="font-size:22.3675px;font-family:Ramabhadra;-inkscape-font-specification:'Ramabhadra, Normal';stroke-width:4.27767;stroke-linecap:round;stroke-linejoin:round;stroke-miterlimit:3.5"
           d="m 35.662281,107.29404 c 0,-3.67866 0.96642,-6.57793 2.89927,-8.697833 1.93285,-2.1199 4.62949,-3.17986 8.08992,-3.17986 3.92805,0 6.74939,1.16907 8.46402,3.50719 1.71462,2.306953 2.57193,5.065943 2.57193,8.276973 0,3.6163 -0.98201,6.46882 -2.94603,8.55754 -1.93286,2.08873 -4.59832,3.13309 -7.9964,3.13309 -3.46042,0 -6.17265,-1.02877 -8.13668,-3.08633 -1.96402,-2.08872 -2.94603,-4.92565 -2.94603,-8.51077 z m 4.72301,-0.1403 c 0,2.3693 0.54556,4.27098 1.63669,5.70503 1.1223,1.40287 2.68105,2.10431 4.67625,2.10431 2.1199,0 3.69424,-0.7482 4.72302,-2.2446 1.02877,-1.4964 1.54316,-3.38249 1.54316,-5.65826 0,-5.14388 -2.08873,-7.715823 -6.26618,-7.715823 -4.20862,0 -6.31294,2.603113 -6.31294,7.809343 z m 26.46757,11.45682 -8.13668,-22.726593 h 5.00359 l 5.75179,16.834513 5.51798,-16.834513 h 4.8633 l -8.08991,22.726593 z m 14.73013,0 V 95.883977 h 16.88128 v 3.83453 h -12.29855 v 5.050353 h 11.41006 v 3.83453 h -11.41006 v 6.17265 h 12.71941 v 3.83453 z"
           sodipodi:nodetypes="ssscscscsscsssssccccccccccccccccccccc" />
        <path
           d="M 33.532041,118.5421 V 95.815507 h -9.67984 c -2.99281,0 -5.22182,0.45204 -6.68705,1.35611 -1.4964,0.90408 -2.2446,2.57194 -2.2446,5.003593 0,3.64748 2.01079,5.76738 6.03237,6.3597 -1.55875,0.81056 -3.2422,2.66547 -5.05035,5.56475 l -2.80575,4.44244 h 5.51797 l 4.91007,-7.34172 c 0.4988,-0.7482 1.05995,-1.29376 1.68345,-1.63669 0.59232,-0.34292 1.52757,-0.51439 2.80575,-0.51439 h 0.93525 v 9.4928 z m -4.58273,-13.09351 h -3.41366 c -2.30695,0 -3.8657,-0.18705 -4.67626,-0.56115 -0.81055,-0.40528 -1.21582,-1.20024 -1.21582,-2.38489 0,-1.1223 0.34292,-1.8705 1.02877,-2.2446 0.65468,-0.405283 2.21343,-0.607913 4.67626,-0.607913 h 3.60071 z"
           style="font-size:22.3675px;font-family:Ramabhadra;-inkscape-font-specification:'Ramabhadra, Normal';fill:url(#linearGradient8-5);fill-opacity:1;stroke-width:4.27767;stroke-linecap:round;stroke-linejoin:round;stroke-miterlimit:3.5"
           id="path1-1-3" />
        <path
           d="M 101.9692,118.65033 V 95.923747 h 9.67983 c 2.99282,0 5.22183,0.45204 6.68705,1.35611 1.4964,0.90408 2.2446,2.57194 2.2446,5.003593 0,3.64748 -2.01078,5.76738 -6.03236,6.35971 1.55874,0.81055 3.2422,2.66546 5.05035,5.56474 l 2.80576,4.44244 h -5.51798 l -4.91006,-7.34172 c -0.49881,-0.7482 -1.05996,-1.29376 -1.68346,-1.63669 -0.59233,-0.34292 -1.52758,-0.51439 -2.80575,-0.51439 h -0.93525 v 9.4928 z m 4.58273,-13.09351 h 3.41366 c 2.30695,0 3.86569,-0.18705 4.67626,-0.56115 0.81054,-0.40527 1.21583,-1.20023 1.21583,-2.38489 0,-1.1223 -0.34294,-1.8705 -1.02879,-2.2446 -0.65467,-0.405273 -2.21342,-0.607913 -4.67625,-0.607913 h -3.60071 z"
           style="font-size:22.3675px;font-family:Ramabhadra;-inkscape-font-specification:'Ramabhadra, Normal';fill:url(#linearGradient10-6);fill-opacity:1;stroke-width:4.27767;stroke-linecap:round;stroke-linejoin:round;stroke-miterlimit:3.5"
           id="path1-5-1-0" />
      </g>
    </g>
  </g>
</svg>

