<?xml version="1.0" encoding="UTF-8" standalone="no"?>
<!-- Created with Inkscape (http://www.inkscape.org/) -->

<svg
   width="512"
   height="512"
   viewBox="0 0 135.46666 135.46666"
   version="1.1"
   id="svg1"
   xmlns:xlink="http://www.w3.org/1999/xlink"
   xmlns="http://www.w3.org/2000/svg"
   xmlns:svg="http://www.w3.org/2000/svg">
  <defs
     id="defs1">
    <linearGradient
       xlink:href="#linearGradient3"
       id="linearGradient11"
       gradientUnits="userSpaceOnUse"
       gradientTransform="matrix(2.0389752,0,0,2.0389752,163.69832,-140.59441)"
       x1="-71.204857"
       y1="37.136494"
       x2="-30.166716"
       y2="37.136494" />
    <linearGradient
       id="linearGradient3">
      <stop
         style="stop-color:#d40000;stop-opacity:1;"
         offset="0"
         id="stop3" />
      <stop
         style="stop-color:#ff155f;stop-opacity:1;"
         offset="1"
         id="stop4" />
    </linearGradient>
    <linearGradient
       xlink:href="#linearGradient3"
       id="linearGradient8-5"
       x1="10.241826"
       y1="12.877981"
       x2="6.5019083"
       y2="32.581203"
       gradientUnits="userSpaceOnUse"
       gradientTransform="matrix(1.7352361,0,0,1.7352361,13.724084,74.830392)" />
    <linearGradient
       xlink:href="#linearGradient3"
       id="linearGradient10-6"
       x1="59.086117"
       y1="13.245996"
       x2="53.631924"
       y2="31.356947"
       gradientUnits="userSpaceOnUse"
       gradientTransform="matrix(1.7352361,0,0,1.7352361,13.724084,74.830392)" />
  </defs>
  <g
     id="layer1">
    <path
       id="path36-5-5"
       style="fill:url(#linearGradient11);fill-opacity:1;stroke:none;stroke-width:20.3637;stroke-linecap:round;stroke-linejoin:round;stroke-miterlimit:3.5;stroke-dasharray:none;stroke-opacity:1;paint-order:normal"
       d="M 18.567873 -67.027035 C 18.531728 -66.313943 18.513367 -65.596236 18.513368 -64.874161 C 18.513421 -41.767766 37.244938 -23.036331 60.351332 -23.036378 C 72.158848 -23.0369 83.389477 -28.037237 91.307563 -36.754555 C 91.309024 -36.94916 91.307683 -37.251376 91.314321 -37.380832 C 91.373675 -38.538405 91.401382 -39.33221 91.128588 -40.318049 C 91.047987 -40.609428 91.062383 -40.845615 91.060274 -41.004059 C 91.058521 -41.135852 91.048332 -41.175175 91.042818 -41.198478 C 90.972043 -41.256278 90.805398 -41.365435 90.686981 -41.625504 C 90.563618 -41.896135 90.594856 -41.97931 90.582211 -42.135383 C 90.569577 -42.291455 90.561967 -42.462388 90.556853 -42.629806 C 90.55174 -42.797226 90.547909 -42.960693 90.543194 -43.089996 C 90.538479 -43.219296 90.522459 -43.348148 90.533797 -43.290211 C 90.536873 -43.274534 90.51503 -43.334998 90.441138 -43.461062 C 90.36725 -43.587127 90.239094 -43.78275 90.195093 -44.081673 C 90.154899 -44.355441 90.193305 -44.487717 90.212385 -44.610649 C 90.171651 -44.691901 90.130314 -44.760456 90.083599 -44.924613 C 89.845108 -45.76351 90.055537 -46.68505 90.171738 -47.632531 C 90.287936 -48.580012 90.293767 -49.520784 90.183407 -49.767421 C 90.047074 -50.072207 90.048773 -50.323167 90.055531 -50.593608 C 90.062258 -50.86405 90.097305 -51.144915 90.142849 -51.418592 C 90.233933 -51.965945 90.352451 -52.442154 90.477422 -52.75662 C 90.538554 -52.910338 90.583551 -53.318589 90.579203 -53.752654 C 90.574855 -54.186721 90.538887 -54.641579 90.559741 -55.048295 L 90.840082 -60.515714 C 90.867894 -61.058128 90.717056 -61.993142 90.97962 -62.853611 A 0.66273128 0.66273128 0 0 1 90.979726 -62.855676 C 91.043858 -63.065271 91.140488 -63.174514 91.180481 -63.228808 C 91.249668 -63.51599 91.287169 -64.04661 91.315884 -64.608095 C 91.345409 -65.18542 91.365226 -65.779644 91.528685 -66.31613 C 91.584432 -66.498894 91.654648 -66.491575 91.738955 -66.562 C 91.779193 -66.680261 91.79048 -66.93739 91.764291 -67.288226 C 91.73726 -67.650377 91.675263 -68.089985 91.83079 -68.585151 C 91.88511 -68.758662 91.945711 -68.739991 92.026015 -68.81006 C 92.007667 -68.774828 92.04232 -68.968561 92.049858 -69.234694 C 92.058337 -69.535003 92.059476 -69.913308 92.063017 -70.288568 C 92.066558 -70.663839 92.072475 -71.035088 92.087292 -71.337216 C 92.094697 -71.488285 92.102624 -71.619134 92.120067 -71.744315 C 92.128794 -71.80691 92.139556 -71.8669 92.161326 -71.943485 C 92.183096 -72.020061 92.168842 -72.11961 92.379853 -72.310014 C 92.381323 -72.31136 92.382122 -72.310966 92.383571 -72.311893 C 92.387033 -72.328638 92.380637 -72.324966 92.385159 -72.342858 C 92.468166 -72.669956 92.586462 -72.84966 92.608911 -72.922305 C 92.642376 -73.030524 92.644112 -73.251838 92.625117 -73.551203 C 92.606131 -73.850557 92.567033 -74.228322 92.697824 -74.656355 C 92.80272 -74.998963 93.020168 -76.383859 93.117049 -77.685705 C 93.165495 -78.336627 93.190347 -78.984231 93.177617 -79.512796 C 93.164886 -80.041361 93.079673 -80.483877 93.057679 -80.534169 C 92.827881 -81.059465 92.966245 -81.49195 93.036259 -81.83198 C 93.106243 -82.172012 93.117905 -82.445554 93.118325 -82.44353 C 92.832261 -83.473128 93.055703 -84.271956 92.877534 -84.841807 C 92.756673 -85.228232 92.827201 -85.530721 92.866134 -85.759818 C 92.905066 -85.988905 92.919249 -86.160935 92.91811 -86.168003 C 92.801588 -86.942305 92.818701 -87.610984 92.669527 -88.141858 C 92.57781 -88.468033 92.649508 -88.68714 92.674538 -88.814795 C 92.689345 -88.890136 92.689999 -88.848738 92.691899 -88.850643 C 92.625812 -88.920459 92.573155 -88.913023 92.529317 -89.070614 A 0.66273128 0.66273128 0 0 1 92.529397 -89.072162 C 92.385001 -89.593059 92.475484 -90.036863 92.516697 -90.348311 C 92.557909 -90.659749 92.568067 -90.824859 92.48091 -91.022822 C 92.333767 -91.356963 92.372431 -91.543215 92.402804 -91.719683 C 84.471866 -101.19352 72.749404 -106.70754 60.351152 -106.71213 C 37.966829 -106.71208 19.688373 -89.132888 18.567873 -67.027035 z "
       transform="rotate(87.06474)" />
    <path
       id="rect2-4"
       style="fill:#ffffff;stroke-width:4.24107;stroke-linecap:round;stroke-linejoin:round;stroke-miterlimit:3.5"
       d="M 65.043058 20.154325 C 64.661792 20.597018 64.280781 21.07913 63.42972 21.683948 C 61.935404 22.745907 59.566996 23.765925 56.318526 24.095687 C 61.265396 30.326641 65.086032 36.771651 66.646578 39.521619 C 66.97036 36.625816 67.331959 30.008186 65.043058 20.154325 z M 66.218697 20.289201 C 68.125955 28.698543 68.083036 34.429451 67.836169 37.937736 C 67.942368 37.594817 68.083209 37.22235 68.169999 36.920227 C 70.18404 29.909712 70.169593 21.718674 70.164193 20.826119 C 68.36769 20.909144 67.064608 20.657133 66.242468 20.301086 C 66.233168 20.297096 66.227897 20.293201 66.218697 20.289201 z M 55.502039 24.881169 C 55.288967 25.442045 54.959751 26.184907 54.351721 27.133228 C 53.155342 28.999081 50.888753 31.565835 47.048808 34.498153 C 49.243174 35.346929 58.827014 38.957108 66.025427 40.689506 C 64.870643 38.61745 60.810107 31.586378 55.502039 24.881169 z M 71.03339 26.074377 C 70.882873 28.163186 70.560975 30.465126 70.099597 33.000053 C 70.996812 30.165748 71.648846 27.864343 71.797168 27.263969 C 71.570886 27.080883 71.334105 26.822048 71.117106 26.373067 C 71.084406 26.305396 71.06526 26.149737 71.03339 26.074377 z M 51.850582 26.731185 C 51.580277 26.948373 51.291896 27.202538 51.006706 27.489795 L 51.490397 27.941447 C 51.69364 27.484988 51.793574 27.040001 51.879004 26.744621 L 51.851099 26.731185 L 51.850582 26.731185 z M 49.942688 28.804443 C 49.713999 29.16537 49.518132 29.553044 49.376831 29.964579 L 49.421273 29.985767 C 49.668907 29.802345 50.056484 29.578321 50.440849 29.270565 L 49.942688 28.804443 z M 46.759937 35.585942 C 47.236298 37.383673 47.723939 41.374432 44.822587 44.968831 C 47.010092 45.011967 54.124994 44.832042 65.217208 41.623299 C 58.054644 39.836517 49.117104 36.497296 46.759937 35.585942 z M 64.060689 43.09401 C 53.8453 45.882557 47.220275 46.119686 44.939376 46.086076 C 45.160125 46.310515 45.361826 46.458583 45.587915 46.787325 C 46.275568 47.787195 46.801888 49.369378 46.714978 51.449573 C 48.190279 51.108688 56.017499 48.988929 64.060689 43.09401 z M 78.840149 47.955212 C 78.538067 47.960372 78.250821 47.997321 77.98077 48.052881 C 77.440675 48.164004 76.979139 48.359727 76.656303 48.535539 C 76.494886 48.623445 76.36695 48.706259 76.2894 48.763949 C 76.2759 48.773989 76.274329 48.775902 76.264079 48.784102 A 0.66266501 0.66266501 0 0 1 76.23669 48.82441 C 76.23669 48.82441 76.106819 49.006893 75.935933 49.306034 L 78.10376 51.428385 L 77.042326 52.512557 L 75.292562 50.799483 C 75.106464 51.39058 74.962717 52.076256 74.964417 52.836051 C 79.960061 53.714047 84.277172 55.354314 87.799809 57.140181 C 88.412448 55.084088 87.830258 53.516697 87.673718 53.154378 C 86.990619 52.570263 86.388547 52.253008 85.535347 51.756014 C 84.639208 51.234018 83.504197 50.520336 81.873039 49.134985 C 81.147245 48.518557 80.443858 48.193301 79.787378 48.048747 L 79.787378 48.049264 C 79.459143 47.976984 79.142236 47.950012 78.840149 47.955212 z M 58.175777 48.150549 C 55.025118 49.79801 52.528971 50.734135 50.412427 51.433553 C 51.411026 51.388653 52.459499 51.321605 53.168331 51.406165 C 53.330516 51.319041 55.41577 50.03589 58.175777 48.150549 z M 73.724699 49.264693 C 72.850396 49.415151 71.817948 49.648244 70.76984 49.957157 C 70.657018 49.990404 70.544967 50.031425 70.431877 50.066195 L 70.467017 53.013302 C 71.225073 52.855361 71.956391 52.721129 72.621407 52.662419 C 72.979726 52.630809 73.318064 52.623083 73.6415 52.634513 C 73.668913 51.51877 73.93872 50.541647 74.244564 49.773189 L 73.724699 49.264693 z M 68.184985 50.857361 C 67.122671 51.282081 66.1652 51.739026 65.515381 52.182861 C 65.457858 52.281328 65.344589 52.5016 65.228577 52.886694 C 65.107346 53.289153 65.001156 53.842865 65.011536 54.545508 C 65.979368 54.209597 67.045307 53.875893 68.121423 53.579159 L 68.184985 50.857361 z M 63.577515 52.200948 C 62.975624 52.206975 62.270286 52.27203 61.595723 52.445378 C 60.253088 52.790405 59.052862 53.496307 58.543197 54.887089 C 58.495946 55.138573 58.446075 55.377331 58.396436 55.621928 C 58.661625 55.536394 58.9552 55.448129 59.281653 55.361479 C 60.446756 55.052244 62.000162 54.792998 63.69172 54.777018 C 63.653211 53.834149 63.789621 53.067875 63.959403 52.504289 C 63.989913 52.402977 64.021678 52.307701 64.054488 52.218001 C 63.898383 52.210751 63.755006 52.199148 63.577515 52.200948 z M 89.127376 53.368835 C 89.376456 54.31207 89.598236 55.919644 88.989917 57.76805 C 93.223063 60.06576 96.160758 62.476739 97.561487 63.740295 C 97.568087 63.570945 97.577157 63.490399 97.582157 63.285543 C 97.641007 61.074823 97.528837 59.725777 97.353748 58.867208 C 97.178648 58.008639 96.969431 57.653723 96.720711 57.262138 C 96.176592 56.405496 95.908367 55.671762 93.673869 55.162524 C 92.70703 54.942181 91.887191 54.375861 91.025452 53.955363 C 90.407612 53.653882 89.793502 53.421995 89.127893 53.368835 L 89.127376 53.368835 z M 73.289067 53.986886 C 72.530789 54.010605 71.534672 54.141723 70.48252 54.36154 L 70.546082 59.756559 C 71.384949 59.853573 72.204082 60.000229 72.996061 60.19891 C 72.776435 57.689775 73.243434 55.172248 73.514376 53.986886 C 73.439108 53.987065 73.369886 53.984386 73.289067 53.986886 z M 74.84091 54.156384 C 74.588195 55.259821 74.05024 58.030452 74.365487 60.542558 C 79.722007 61.776968 84.04182 63.044547 87.436007 64.211584 C 88.063556 62.081411 87.694289 59.393673 87.53936 58.487386 C 84.086113 56.701589 79.814894 55.042711 74.84091 54.156384 z M 68.088867 54.96357 C 67.020651 55.267294 65.965989 55.603954 65.035824 55.935604 C 64.959707 56.254221 64.864303 56.80464 64.837903 57.456958 C 64.80899 58.17149 64.855896 59.023502 65.054944 59.902287 C 66.043505 59.746545 67.020248 59.660207 67.979313 59.638737 L 68.088867 54.96357 z M 63.650378 56.073063 C 62.114633 56.096078 60.696691 56.355527 59.621167 56.640987 C 58.987981 56.809039 58.472624 56.984872 58.125134 57.119511 C 58.117384 57.122511 58.115681 57.123746 58.108081 57.126746 C 57.936506 58.14913 57.859308 59.174648 58.037801 60.300195 C 58.261017 60.232841 58.520877 60.165108 58.861523 60.101758 C 59.857401 59.916555 61.405129 59.780325 63.697404 59.891435 C 63.521953 58.988743 63.484403 58.134429 63.513953 57.404248 C 63.534834 56.888197 63.585348 56.443377 63.650378 56.073063 z M 89.018856 59.295089 C 89.188306 60.645674 89.288203 62.745323 88.690194 64.657035 C 90.196322 65.199498 91.524488 65.718199 92.640857 66.191825 C 95.011435 67.197552 96.469523 67.983503 97.309823 68.47334 C 97.424422 67.622661 97.40305 66.618126 97.36925 65.578426 A 0.66273128 0.66273128 0 0 1 97.424544 65.430632 C 97.059365 65.05954 94.139491 62.184093 89.018856 59.295089 z M 58.115833 60.726009 C 58.121273 60.751309 58.123568 60.77552 58.129268 60.80094 A 0.66266501 0.66266501 0 0 1 58.26001 60.982841 C 58.25881 60.971341 58.254307 60.933702 58.254325 60.933748 C 58.254394 60.933918 58.138965 60.746022 58.139087 60.746163 C 58.139107 60.746193 58.121433 60.730909 58.115833 60.726009 z M 67.947791 60.957003 C 66.986226 60.976106 66.002693 61.068244 65.005334 61.237089 C 64.962448 61.359218 64.911397 61.554122 64.861157 61.78796 L 63.548059 61.572986 C 63.575519 61.444183 63.604839 61.324053 63.634359 61.213835 C 63.001332 61.183015 62.431183 61.172111 61.919735 61.176111 C 61.675016 61.178011 61.455566 61.186098 61.237089 61.194198 L 61.138904 61.178178 L 61.138904 61.196781 C 60.261376 61.233252 59.590027 61.314021 59.103369 61.404521 C 58.60505 61.497195 58.292164 61.598766 58.134436 61.662386 C 58.120716 61.667986 58.126926 61.665554 58.115316 61.670654 C 58.114969 61.674724 58.114665 61.677923 58.114282 61.682023 L 57.264722 61.682023 L 57.264722 61.683057 L 61.002995 61.683057 L 61.002995 73.681291 L 47.875631 73.681291 L 47.875631 69.335303 L 47.36145 69.694454 C 47.375999 69.709212 47.394046 69.719331 47.408476 69.734245 L 47.408476 73.226538 A 4.9226138 8.6114829 0 0 0 43.942021 70.724882 A 4.9226138 8.6114829 0 0 0 39.01984 79.336759 A 4.9226138 8.6114829 0 0 0 43.942021 87.94812 A 4.9226138 8.6114829 0 0 0 48.673515 81.632227 L 43.267643 81.632227 C 42.510819 80.421688 42.556142 79.232998 43.267643 77.888269 L 48.791854 77.888269 A 4.9226138 8.6114829 0 0 0 48.643542 76.855257 L 45.657678 76.855257 C 45.410533 75.427959 45.7858 74.543591 46.6571 74.091602 L 47.844108 74.091602 A 4.9226138 8.6114829 0 0 0 47.83894 74.078166 L 49.650716 74.078166 C 49.651816 74.082566 49.652717 74.087602 49.653817 74.091602 L 67.640833 74.091602 L 67.947791 60.957003 z M 70.562101 61.091878 L 70.617395 65.802185 C 71.323953 65.873013 72.041296 65.964102 72.773853 66.097257 C 72.571697 64.056409 72.798941 62.451272 72.986759 61.565234 C 72.207833 61.353719 71.396907 61.195871 70.562101 61.091878 z M 58.287398 61.250008 A 0.66266501 0.66266501 0 0 1 58.285331 61.31047 C 58.286331 61.30755 58.291023 61.292858 58.291016 61.2929 C 58.291016 61.29295 58.28836 61.259008 58.287398 61.250008 z M 58.24244 61.439661 A 0.66266501 0.66266501 0 0 1 58.140637 61.603475 C 58.157597 61.584105 58.141746 61.611103 58.168026 61.576603 C 58.184696 61.554713 58.227235 61.484049 58.226937 61.484619 C 58.226867 61.484759 58.23694 61.455931 58.24244 61.439661 z M 61.572986 61.70011 L 67.403638 62.728471 L 67.421724 73.768107 L 61.572986 73.698344 L 61.572986 61.70011 z M 74.267818 61.879944 C 74.092259 62.700941 73.875779 64.263746 74.131909 66.32205 C 74.498778 66.370852 74.847352 66.422872 75.204195 66.473462 L 79.563102 66.00424 C 81.457501 66.004205 82.942759 66.769019 84.071354 68.10127 C 85.289913 68.38475 86.426563 68.674442 87.462362 68.96685 C 87.813991 67.880107 87.782697 67.044954 87.665967 66.46106 C 87.574487 66.003487 87.446211 65.727763 87.371411 65.594446 C 84.011034 64.421949 79.692272 63.137047 74.267818 61.879944 z M 88.957878 66.160819 C 88.960878 66.174459 88.964179 66.187327 88.967179 66.201127 C 89.123519 66.983155 89.139481 68.058622 88.730501 69.346672 C 90.2978 69.824588 91.664611 70.301083 92.79692 70.752271 C 94.936278 71.604732 96.340042 72.373232 97.179081 72.892192 C 97.260151 71.941122 97.153581 70.937324 97.089681 69.874288 C 96.475962 69.492943 94.932516 68.604348 92.123059 67.412423 C 91.20498 67.022923 90.149293 66.601808 88.958394 66.160819 L 88.957878 66.160819 z M 70.632898 67.136471 L 70.652535 68.782882 C 71.102672 68.18649 71.59051 67.697132 72.107743 67.334908 C 71.612097 67.254581 71.120146 67.1874 70.632898 67.136471 z M 80.830725 69.401965 A 4.7743616 10.059762 0 0 0 76.05634 79.462333 A 4.7743616 10.059762 0 0 0 80.830725 89.521667 A 4.7743616 10.059762 0 0 0 85.604594 79.462333 A 4.7743616 10.059762 0 0 0 80.830725 69.401965 z M 85.137439 69.722359 C 85.962288 71.326291 86.485957 73.372038 86.750777 75.700806 L 86.807621 75.712691 C 87.61252 73.595473 87.399964 71.187335 87.279944 70.294417 C 86.609495 70.102754 85.888228 69.911675 85.137439 69.722359 z M 88.669006 70.711963 C 88.786546 71.913041 88.830795 73.980971 88.119686 75.984509 L 95.685632 77.550822 C 96.005962 76.211163 96.46434 75.132299 97.008549 74.4337 C 97.009549 74.4107 97.013067 74.374468 97.013717 74.352568 C 96.457707 73.962068 95.039324 73.073487 92.307027 71.984753 C 91.286068 71.577936 90.066302 71.146981 88.669523 70.711963 L 88.669006 70.711963 z M 102.23459 75.305998 C 100.90975 75.306138 100.47543 78.262778 100.47552 81.868905 C 100.47557 85.474751 100.90985 88.365009 102.23459 88.365149 C 103.55932 88.365009 104.16827 85.498005 104.16832 81.892159 C 104.1684 78.286043 103.55942 75.306138 102.23459 75.305998 z M 81.588302 76.789111 A 1.3769199 2.9012225 0 0 1 82.964962 79.690226 A 1.3769199 2.9012225 0 0 1 81.588302 82.591341 A 1.3769199 2.9012225 0 0 1 80.211125 79.690226 A 1.3769199 2.9012225 0 0 1 81.588302 76.789111 z M 102.51571 80.088135 A 0.69180369 1.8830537 0 0 1 103.20765 81.971224 A 0.69180369 1.8830537 0 0 1 102.51571 83.854313 A 0.69180369 1.8830537 0 0 1 101.82376 81.971224 A 0.69180369 1.8830537 0 0 1 102.51571 80.088135 z " />
    <path
       id="path4"
       style="color:#000000;fill:#000000;stroke-linecap:round;stroke-linejoin:round;stroke-miterlimit:3.5;-inkscape-stroke:none"
       d="M 65.396525 18.466573 C 65.249401 18.446963 65.100567 18.488116 64.982597 18.578194 C 64.922187 18.623984 64.869758 18.680258 64.832218 18.746143 C 64.832218 18.746143 64.267263 19.706791 62.769295 20.771342 C 61.272177 21.835294 58.879094 22.95789 55.251925 23.123136 C 54.959078 23.135586 54.74793 23.39663 54.740328 23.685376 L 54.748079 23.551017 C 54.739479 23.569887 54.731265 23.589712 54.724825 23.609412 A 0.35685618 0.35685618 0 0 0 54.710872 23.67194 C 54.710872 23.67194 54.685705 23.877233 54.505717 24.369055 C 54.326138 24.85948 53.996791 25.592449 53.396224 26.52913 C 53.037418 27.088727 52.566822 27.728982 51.989591 28.424622 L 51.847481 28.291813 C 52.28794 27.496046 52.438533 26.766018 52.180278 26.473319 C 52.178578 26.471521 52.176076 26.469952 52.174076 26.468152 C 52.172076 26.465452 52.170425 26.462584 52.166325 26.459884 C 52.160225 26.453784 52.155898 26.449164 52.149788 26.443864 C 51.61529 25.932465 50.453 25.853471 49.808329 25.861987 L 49.807296 25.861987 C 48.211453 25.88401 47.888262 27.075939 48.030143 27.980204 C 48.125363 28.586572 48.611881 29.868031 49.165991 30.387809 C 49.176191 30.404729 49.187395 30.421562 49.203715 30.438452 C 49.496552 30.739826 50.157066 30.370209 50.835657 29.655554 L 50.868213 29.686043 C 49.589512 31.033812 47.899446 32.555824 45.634941 34.210832 C 45.624811 34.218032 45.615125 34.224706 45.605485 34.232536 C 45.599685 34.236636 45.596378 34.238102 45.585848 34.245972 A 0.35685618 0.35685618 0 0 0 45.558459 34.269743 C 45.539859 34.286843 45.528021 34.308757 45.511951 34.328137 C 45.490861 34.347727 45.47089 34.368056 45.45304 34.390666 A 0.35685618 0.35685618 0 0 0 45.392578 34.55293 C 45.375445 34.620407 45.372616 34.688827 45.378109 34.757052 C 45.377842 34.804467 45.383059 34.852694 45.394645 34.898645 A 0.35685618 0.35685618 0 0 0 45.410148 34.945154 C 45.410148 34.945154 47.839736 40.813968 43.217 45.216878 A 0.35685618 0.35685618 0 0 0 43.172042 45.269588 C 43.167342 45.276188 43.164576 45.283976 43.160156 45.290776 C 43.152256 45.299676 43.142165 45.307194 43.134835 45.316614 A 0.35685618 0.35685618 0 0 0 43.105379 45.359505 C 42.953416 45.627534 43.052456 45.978415 43.32242 46.1269 A 0.35685618 0.35685618 0 0 0 43.326038 46.128967 C 43.326038 46.128967 44.000116 46.483971 44.650505 47.429663 C 45.300829 48.375271 45.894892 49.867485 45.582231 52.193197 A 0.35685618 0.35685618 0 0 0 45.582231 52.234538 C 45.580531 52.248138 45.576729 52.261652 45.576029 52.275362 A 0.35685618 0.35685618 0 0 0 45.587915 52.386983 C 45.593615 52.407863 45.603149 52.427385 45.611169 52.447445 C 45.614569 52.458205 45.616888 52.467911 45.620988 52.478451 A 0.35685618 0.35685618 0 0 0 45.630806 52.498088 C 45.631791 52.500288 45.633941 52.501572 45.634941 52.503772 C 45.670251 52.578562 45.719355 52.646501 45.783252 52.699109 A 0.35685618 0.35685618 0 0 0 45.79307 52.70686 C 45.79967 52.71186 45.807438 52.716043 45.814258 52.720813 C 45.872208 52.761823 45.939192 52.787869 46.008044 52.804529 A 0.35685618 0.35685618 0 0 0 46.088143 52.816414 L 46.043184 52.814347 C 46.074664 52.821947 46.106466 52.82622 46.138786 52.8283 A 0.35685618 0.35685618 0 0 0 46.199247 52.826233 C 46.199247 52.826233 47.511065 52.682705 49.05282 52.574052 C 50.593317 52.465482 52.407949 52.409066 53.207088 52.53116 A 0.35685618 0.35685618 0 0 0 53.222591 52.533228 C 53.300608 52.541584 53.377521 52.527654 53.451518 52.503772 C 53.460462 52.502421 53.46945 52.501844 53.478389 52.500155 A 0.35685618 0.35685618 0 0 0 53.580192 52.465015 C 53.580192 52.465015 60.088207 48.994963 67.000562 42.697652 L 67.624296 43.308984 L 66.940617 44.007133 L 68.302808 45.340902 L 68.206689 49.431608 C 66.97722 49.897645 65.829055 50.424714 64.94539 51.002055 C 64.062423 50.838211 62.718662 50.791593 61.254142 51.167936 C 59.653511 51.579264 57.960546 52.544359 57.27144 54.459208 A 0.66273128 0.66273128 0 0 0 57.244051 54.562561 C 57.143049 55.109101 57.021537 55.665305 56.909705 56.236361 C 56.90084 56.242962 56.897608 56.243222 56.886967 56.251864 C 56.862247 56.271934 56.830563 56.297126 56.783097 56.355216 C 56.759367 56.384266 56.699782 56.483583 56.699382 56.484408 C 56.698978 56.485233 56.630652 56.778819 56.630652 56.77948 A 0.66266501 0.66266501 0 0 0 56.752091 57.142765 C 56.566676 58.340731 56.49878 59.625669 56.819788 61.072758 C 56.807359 61.290221 56.782198 61.485338 56.761393 61.687708 L 58.102913 61.687708 C 58.103296 61.683644 58.103566 61.680411 58.103947 61.676339 C 58.115562 61.671254 58.109359 61.673601 58.123067 61.66807 C 58.280795 61.604446 58.59368 61.502879 59.092 61.410205 C 59.578658 61.319701 60.250006 61.238937 61.127535 61.202466 L 61.127535 61.183862 L 61.22572 61.199882 C 61.444197 61.191759 61.663647 61.183693 61.908366 61.181795 C 62.419815 61.177828 62.989963 61.188738 63.62299 61.219519 C 63.593471 61.329737 63.564149 61.449867 63.53669 61.57867 L 64.849788 61.793644 C 64.900027 61.559806 64.951079 61.364902 64.993966 61.242773 C 65.991326 61.073928 66.974857 60.98179 67.936422 60.962687 L 67.628947 74.097286 L 49.641931 74.097286 C 49.640789 74.092888 49.639976 74.088245 49.638831 74.08385 L 47.827055 74.08385 A 4.9226138 8.6114829 0 0 1 47.832222 74.097286 L 46.645215 74.097286 C 45.773914 74.549274 45.398648 75.433641 45.645793 76.860942 L 48.631657 76.860942 A 4.9226138 8.6114829 0 0 1 48.779968 77.893953 L 43.255758 77.893953 C 42.544256 79.23868 42.498933 80.427372 43.255758 81.637911 L 48.661629 81.637911 A 4.9226138 8.6114829 0 0 1 43.930135 87.953805 A 4.9226138 8.6114829 0 0 1 39.007955 79.342444 A 4.9226138 8.6114829 0 0 1 43.930135 70.730566 A 4.9226138 8.6114829 0 0 1 47.39659 73.232222 L 47.39659 69.739929 C 46.218633 68.522461 44.646559 67.821668 42.623238 67.8217 L 36.83186 68.339498 C 33.325204 68.653105 30.445414 73.341491 30.445687 79.511426 C 30.445695 83.533984 31.665392 87.066191 33.488912 89.033842 C 32.899901 89.036772 32.279912 89.038541 31.82028 89.046761 C 31.478651 89.052861 31.190309 89.059295 30.974854 89.068465 C 30.867126 89.073065 30.77932 89.077568 30.703035 89.083968 C 30.664897 89.087168 30.629695 89.091671 30.587797 89.097921 C 30.545907 89.104221 30.552005 89.058167 30.329932 89.181637 C 30.295892 89.200567 30.258132 89.210589 30.115474 89.213159 C 29.972824 89.215759 29.710936 89.170199 29.371334 89.361471 C 29.284304 89.410509 29.300894 89.427531 29.256095 89.472575 C 29.245395 89.471662 29.261627 89.472315 29.247827 89.470508 C 29.13993 89.456978 28.949561 89.413622 28.679903 89.46689 C 28.126334 89.576397 27.568507 89.643265 26.945125 89.851363 C 26.948425 89.850263 26.791345 89.865989 26.578223 89.845679 C 26.365098 89.825429 26.108711 89.776625 25.777238 89.823975 C 25.414401 89.875845 25.162686 89.982647 24.997957 90.015694 C 24.890864 90.037114 24.682958 90.024797 24.408329 89.996057 C 24.133703 89.967307 23.789841 89.921596 23.39082 90.023446 C 23.015158 90.119466 22.895507 90.248094 22.972758 90.2224 C 23.028228 90.2039 22.961306 90.220803 22.806877 90.201213 C 22.652441 90.181663 22.418588 90.128234 22.095809 90.208964 C 21.888223 90.261014 21.782361 90.345664 21.724772 90.384664 C 21.654402 90.393864 21.514504 90.392968 21.302576 90.371228 C 21.074931 90.347858 20.779716 90.305884 20.425627 90.394482 C 19.273063 90.682607 18.163627 91.136164 17.136938 91.490023 C 17.0952 91.486523 17.038848 91.48122 16.96899 91.47452 C 16.88939 91.46692 16.804721 91.457087 16.695105 91.459017 C 16.640295 91.459986 16.580498 91.461421 16.488399 91.482271 C 16.396299 91.503101 16.237705 91.527611 16.070337 91.742204 L 16.06827 91.742204 C 16.05837 91.754954 16.069248 91.762417 16.060518 91.775277 C 15.914866 91.805787 15.767071 91.840987 15.480192 91.87863 C 15.072455 91.93214 14.716341 91.94709 14.345894 92.070349 C 14.201548 92.118419 13.943487 92.141191 13.605371 92.2538 C 13.438459 92.30959 13.444786 92.36782 13.379028 92.441386 C 13.302178 92.462236 13.276616 92.457999 13.07052 92.456889 C 12.837034 92.455589 12.393726 92.578659 12.107271 92.865133 C 11.848313 93.123948 11.848313 93.543726 12.107271 93.802543 C 12.366088 94.061504 12.785865 94.061504 13.044682 93.802543 C 13.070432 93.776793 13.054893 93.782552 13.052433 93.777222 C 13.056233 93.778522 13.053852 93.781356 13.062252 93.781356 C 13.142362 93.781791 13.467727 93.821673 13.839982 93.697123 C 14.018007 93.637593 14.017159 93.57493 14.081828 93.498169 C 14.230901 93.456589 14.453195 93.430089 14.765507 93.326086 C 14.758307 93.328486 15.228678 93.248866 15.652275 93.193278 C 16.075868 93.137688 16.453855 93.128368 16.879073 92.924044 L 16.88114 92.924044 C 16.92511 92.902854 16.91497 92.840424 16.95297 92.804671 C 16.99005 92.808371 17.023392 92.81149 17.064591 92.81449 C 17.147051 92.82049 17.169237 92.876683 17.46095 92.777283 C 18.567714 92.400679 19.689914 91.944204 20.748088 91.679675 C 20.798938 91.666955 20.949926 91.667074 21.168217 91.689494 C 21.386508 91.711904 21.668615 91.75475 22.01571 91.68536 C 22.244061 91.63969 22.372203 91.54131 22.435323 91.499841 C 22.439223 91.497341 22.437607 91.498872 22.441007 91.496741 C 22.430187 91.502641 22.488447 91.498441 22.638928 91.517411 C 22.807101 91.538701 23.059874 91.591074 23.392371 91.480204 C 23.644675 91.396284 23.759425 91.327843 23.757723 91.309155 C 23.858255 91.290535 24.024396 91.288623 24.26932 91.314323 C 24.533787 91.342003 24.865492 91.392813 25.25789 91.314323 C 25.593204 91.247053 25.822809 91.15686 25.964823 91.136556 C 26.003083 91.131056 26.205579 91.142752 26.451099 91.166012 C 26.696616 91.189342 26.997824 91.231807 27.365255 91.109167 C 27.829429 90.954218 28.313023 90.889477 28.908313 90.772754 C 28.37073 90.843337 27.958215 91.062813 27.628805 91.195467 C 26.058103 91.82791 24.472702 92.447397 22.908162 93.185527 A 0.66266501 0.66266501 0 0 0 22.591903 94.06816 A 0.66266501 0.66266501 0 0 0 23.474536 94.384937 C 24.985224 93.672214 26.546176 93.059489 28.124898 92.423816 C 28.527321 92.261759 28.845339 92.116136 29.08763 92.085852 C 30.081589 91.961558 31.206346 92.207689 32.411975 92.300826 A 0.66273128 0.66273128 0 0 0 32.414042 92.300826 C 33.458578 92.381496 34.591231 92.501736 35.73632 92.409863 C 36.458434 92.352003 37.187956 92.046411 37.742399 91.630583 A 0.66273128 0.66273128 0 0 0 37.742399 91.630066 A 0.66273128 0.66273128 0 0 0 37.742399 91.629549 A 0.66273128 0.66273128 0 0 0 37.742399 91.629032 C 37.918932 91.496587 37.99177 91.380263 38.039022 91.322074 C 38.051313 91.306937 38.051995 91.308082 38.058659 91.301921 C 38.448043 91.112073 39.083869 90.866485 39.374858 90.830115 C 39.92981 90.760835 40.662752 90.833732 41.390755 90.833732 L 44.718717 90.833732 C 45.150687 90.833732 45.637305 90.874925 46.173926 90.831665 C 46.891372 90.774105 47.436073 90.654348 47.970715 90.724695 C 47.972615 90.725199 47.972949 90.725645 47.974849 90.726245 C 48.013699 90.736775 48.070077 90.752574 48.136597 90.771204 C 48.269629 90.808474 48.444967 90.858417 48.619255 90.908146 C 48.967828 91.007606 49.357991 91.119403 49.330322 91.111235 A 0.66273128 0.66273128 0 0 0 49.331873 91.111235 C 50.702945 91.515748 51.486253 91.778849 53.044824 92.171635 C 54.876043 92.633109 56.695902 92.988344 58.406254 93.578267 C 59.272792 93.877159 60.151064 94.334702 61.124951 94.689311 C 61.75281 94.917923 62.379745 95.118517 62.996155 95.32028 C 64.036513 95.660836 64.935181 95.573856 65.627002 95.804488 A 0.66266501 0.66266501 0 0 0 66.464677 95.384875 A 0.66266501 0.66266501 0 0 0 66.047131 94.546684 C 65.0154 94.202736 64.116212 94.292231 63.408016 94.060409 C 62.786791 93.857069 62.173959 93.660336 61.578153 93.443392 C 60.71543 93.12926 59.829734 92.666241 58.837752 92.32408 C 58.551342 92.225294 58.264314 92.134925 57.976823 92.048128 C 58.063832 92.032535 58.150884 92.016411 58.236239 92.005754 A 0.66273128 0.66273128 0 0 0 58.236239 92.005237 A 0.66273128 0.66273128 0 0 0 58.236239 92.00472 A 0.66273128 0.66273128 0 0 0 58.236239 92.004203 A 0.66273128 0.66273128 0 0 0 58.236239 92.003687 C 59.037005 91.903602 59.959493 92.009488 60.876904 92.099288 C 61.642323 92.174228 62.389309 92.103422 63.02561 92.103422 C 63.670225 92.103422 64.390026 92.158675 65.135042 92.101355 C 65.900479 92.042575 66.502347 91.788177 67.095646 91.550484 C 67.128026 91.554984 67.133083 91.561213 67.185563 91.560303 C 67.312344 91.558003 67.534399 91.497035 67.67959 91.35153 A 0.66273128 0.66273128 0 0 0 67.681657 91.349463 C 67.685457 91.345663 67.68213 91.341497 67.685791 91.337577 C 67.727801 91.323197 67.695905 91.336607 67.744185 91.327759 C 67.887222 91.301649 68.040457 91.281577 68.140544 91.267297 C 68.466794 91.220717 68.92991 91.305892 69.519788 91.272982 C 69.862722 91.253762 70.051575 91.177813 70.099597 91.175313 A 0.66273128 0.66273128 0 0 0 70.101664 91.175313 C 70.398995 91.159004 70.693813 91.148549 70.985848 91.146891 C 71.862542 92.152356 72.864665 92.729442 73.933988 92.714754 C 74.440119 92.707854 76.830125 92.865576 78.911462 92.882703 C 80.250483 92.882728 81.423628 92.518166 82.434245 91.858476 C 82.656474 91.855023 82.886324 91.847624 83.105522 91.847624 C 83.738111 91.847624 84.35159 91.779173 84.787073 91.841423 C 85.032706 91.876511 85.34261 92.022833 85.636633 92.208842 C 85.884229 92.365271 85.99728 92.333666 86.101721 92.337516 C 86.206163 92.341316 86.292822 92.335865 86.373022 92.329765 C 86.453222 92.323665 86.526597 92.316185 86.574561 92.312195 C 86.589061 92.310995 86.594226 92.311578 86.601432 92.311678 C 86.681415 92.323871 86.754771 92.335687 86.783333 92.34165 C 86.819233 92.34915 86.849656 92.384826 86.699618 92.300826 C 86.662108 92.279826 86.605436 92.252067 86.525468 92.158199 C 86.505478 92.134729 86.462699 92.071499 86.462939 92.071899 C 86.463182 92.072302 86.406472 91.948522 86.406612 91.94891 C 86.406717 91.949209 86.401594 91.881412 86.396794 91.820235 C 86.529751 91.993292 86.843766 92.402107 86.843795 92.402112 C 86.843831 92.402118 86.904196 92.409863 86.904256 92.409863 C 86.904374 92.409873 86.937407 92.41173 86.945597 92.41193 C 86.978327 92.41252 86.981626 92.412308 86.990556 92.41193 C 86.995856 92.411706 87.001099 92.410163 87.006059 92.409863 C 87.005246 92.409903 87.018757 92.409357 87.015877 92.409863 C 87.021477 92.409633 87.025085 92.410221 87.037065 92.409863 C 87.106705 92.407763 87.281138 92.404179 87.634961 92.404179 L 90.842 92.404179 C 91.399473 92.404179 92.189304 92.380575 92.620186 92.462056 C 92.648349 92.480075 92.730974 92.521374 92.789168 92.577812 C 92.895442 92.680889 92.939359 92.748043 93.099744 92.888387 C 93.886999 93.577927 94.694939 94.080677 95.23088 94.724451 A 0.66266501 0.66266501 0 0 0 96.162089 94.810234 A 0.66266501 0.66266501 0 0 0 96.248389 93.876957 C 95.528088 93.011731 94.644256 92.480456 93.973075 91.892582 A 0.66273128 0.66273128 0 0 0 93.971008 91.892582 C 94.044248 91.956662 93.861161 91.770531 93.713143 91.626965 C 93.565125 91.483399 93.494899 91.30795 93.052718 91.1934 C 92.255549 90.986837 91.336955 91.078162 90.842 91.078162 L 87.634961 91.078162 C 87.367716 91.078162 87.272057 91.079779 87.164189 91.081779 C 87.137049 91.076879 87.08534 91.050982 87.054635 91.044572 C 86.972855 91.027502 86.875601 91.010872 86.742509 90.991862 A 0.66273128 0.66273128 0 0 0 86.740442 90.991862 C 86.560958 90.966792 86.530669 90.986262 86.462939 90.991862 C 86.395211 90.997462 86.331053 91.005012 86.273287 91.009432 C 86.221017 91.013432 86.180581 91.013666 86.162183 91.013566 C 85.827353 90.812964 85.455646 90.597563 84.974658 90.528841 C 84.6233 90.478589 84.280542 90.477186 83.961283 90.488017 C 84.010512 90.429688 84.060015 90.372045 84.108044 90.3118 C 84.164045 90.309989 84.227639 90.312604 84.27961 90.3087 C 84.87305 90.26392 85.346415 90.21972 85.785461 90.000191 C 85.748601 90.018621 85.966464 89.985931 86.289307 90.035331 C 86.612148 90.084731 87.013982 90.205496 87.52334 90.035331 C 88.101012 89.842465 88.933905 90.031431 89.947481 89.656543 C 89.919361 89.666943 90.044351 89.648046 90.248238 89.672046 C 90.452133 89.696026 90.719996 89.758392 91.078162 89.685482 C 91.687535 89.561831 92.415226 89.556255 93.195345 89.293258 C 93.093733 89.327528 93.127538 89.302256 93.255806 89.320646 C 93.384073 89.339036 93.606768 89.400518 93.9276 89.293258 C 94.093846 89.237668 94.088691 89.181072 94.15446 89.107739 C 94.327194 89.059679 94.527096 89.066877 94.861393 89.093787 C 95.216003 89.122337 95.720344 89.143537 96.234436 88.885014 C 96.039064 88.983284 96.195948 88.907887 96.347607 88.918087 C 96.395179 88.921286 96.459387 88.924818 96.509355 88.929972 C 97.016691 89.910111 97.629622 90.507127 98.29891 90.495251 C 98.553202 90.490751 99.753812 90.593175 100.79953 90.604289 C 101.32779 90.604302 101.80362 90.455506 102.23045 90.186743 C 102.54681 90.335161 102.7347 90.253084 102.83197 90.230668 C 103.06005 90.335538 103.26461 90.422644 103.46707 90.521606 C 103.77064 90.670134 104.02406 90.612913 104.13886 90.593953 C 104.16026 90.590453 104.15697 90.588719 104.15747 90.586719 C 104.23207 90.639369 104.3638 90.740679 104.60757 90.769653 C 105.10821 90.831383 105.44826 90.756433 105.65867 90.769653 C 105.72507 90.820073 105.82618 90.912303 106.06278 90.951554 C 107.146 91.13144 108.08392 90.808717 108.60784 90.939669 C 109.91488 91.266317 111.03843 91.102658 112.01022 91.31639 C 112.12649 91.34196 112.19608 91.40284 112.33836 91.586141 C 112.48064 91.769445 112.60857 92.091104 113.07062 92.314779 C 114.07758 92.802382 115.41213 93.317332 116.50607 93.654232 C 117.29912 93.898394 117.98413 94.034878 118.79533 94.058858 C 119.16104 94.069478 119.46616 93.781707 119.47694 93.416003 C 119.48754 93.050297 119.19979 92.745177 118.83409 92.734391 C 118.14126 92.713911 117.62215 92.61201 116.89674 92.388676 C 115.87842 92.075063 114.56924 91.568793 113.64888 91.12312 C 113.73358 91.1641 113.58648 91.03367 113.38481 90.773787 C 113.18309 90.513913 112.83857 90.141457 112.29495 90.021895 C 111.02381 89.742321 109.92645 89.903948 108.92823 89.654476 C 107.84713 89.38424 106.90165 89.722777 106.32633 89.644657 C 106.25653 89.592717 106.13613 89.486864 105.88088 89.455005 C 105.37735 89.391985 105.03789 89.468275 104.82668 89.455005 C 104.76938 89.412615 104.68243 89.334996 104.47683 89.283439 C 104.20256 89.214779 104.03939 89.270326 103.95541 89.287056 C 103.7384 89.18465 103.54858 89.103427 103.35803 89.014722 C 104.33394 87.495941 104.83845 85.00067 104.83856 81.998612 C 104.83858 77.004617 103.77428 73.162394 101.12096 73.162459 L 98.394511 73.541248 C 98.610245 72.217759 98.470796 70.956314 98.400195 69.780754 A 0.66266501 0.66266501 0 0 0 98.431718 69.436072 C 98.746567 68.265722 98.727371 66.998113 98.685449 65.765495 C 98.685987 65.763995 98.69105 65.76131 98.69165 65.75981 C 98.72264 65.67589 98.736782 65.607783 98.752112 65.525199 C 98.813422 65.194868 98.861561 64.630549 98.896289 63.326367 C 98.956689 61.057548 98.84704 59.620055 98.640491 58.607275 C 98.433905 57.59453 98.101727 56.9928 97.82607 56.558822 C 97.324721 55.769499 96.499939 54.454269 93.957056 53.874748 C 93.354214 53.73736 92.552794 53.237296 91.593892 52.769389 C 90.715384 52.340706 89.642352 52.006108 88.421993 52.10328 C 87.667328 51.477644 86.979805 51.074108 86.191638 50.614998 C 85.326087 50.110818 84.290992 49.466039 82.718982 48.130912 C 81.400686 47.011272 80.016917 46.639866 78.823612 46.644181 C 78.425848 46.64562 78.049286 46.688745 77.703267 46.759937 C 77.011235 46.902314 76.434166 47.145862 76.009831 47.376953 C 75.79766 47.492499 75.623805 47.604909 75.486348 47.707166 C 75.435294 47.74514 75.392795 47.780542 75.349406 47.81827 C 75.070817 47.814641 74.763977 47.830014 74.439384 47.858061 L 73.532979 46.970776 L 74.168599 46.32172 L 69.32135 41.575757 L 68.68573 42.224813 L 68.004118 41.557153 C 70.884886 35.973495 72.982625 27.144596 72.982625 27.144596 A 0.35685618 0.35685618 0 0 0 72.984692 27.136845 C 72.986092 27.130345 72.985003 27.123728 72.986243 27.117208 L 72.98831 27.111007 C 72.988659 27.109007 72.989977 27.107422 72.990377 27.105322 A 0.35685618 0.35685618 0 0 0 72.992444 27.083618 A 0.35685618 0.35685618 0 0 0 72.998128 27.037109 C 72.998141 27.036468 72.998117 27.035742 72.998128 27.035042 C 73.004428 26.880909 72.84948 26.812126 72.748531 26.70483 C 72.756731 26.70173 72.787288 26.689327 72.787288 26.689327 L 72.74078 26.603544 L 72.714941 26.572021 L 72.709257 26.56427 C 72.709203 26.564219 72.641174 26.509573 72.641044 26.509493 C 72.640915 26.509413 72.621873 26.499197 72.615723 26.496057 C 72.588223 26.482007 72.587723 26.484414 72.580583 26.482104 C 72.573583 26.480104 72.575817 26.468312 72.568697 26.466602 A 0.35685618 0.35685618 0 0 0 72.545443 26.464535 C 72.543043 26.463645 72.536346 26.46182 72.508236 26.44128 C 72.439226 26.39068 72.290124 26.255837 72.115495 25.894543 C 71.767729 25.175044 71.353469 23.572988 71.367737 20.343461 C 71.369437 20.214297 71.295472 20.105521 71.216842 20.005497 C 71.110451 19.824766 70.929558 19.690476 70.717131 19.70474 A 0.35685618 0.35685618 0 0 0 70.707312 19.70474 C 68.670005 19.897704 67.409511 19.596575 66.676034 19.278927 C 66.30933 19.120112 66.072387 18.955173 65.931893 18.839677 C 65.787621 18.721089 65.779447 18.699117 65.779447 18.699117 L 65.779447 18.701184 C 65.691405 18.576488 65.557228 18.491698 65.406344 18.46864 A 0.35685618 0.35685618 0 0 0 65.396525 18.466573 z M 65.031173 20.16001 C 67.320076 30.01388 66.958474 36.631497 66.634692 39.527303 C 65.074144 36.777333 61.253516 30.332331 56.306641 24.101371 C 59.555114 23.771609 61.923516 22.751592 63.417834 21.689632 C 64.268896 21.084814 64.649906 20.602703 65.031173 20.16001 z M 66.206812 20.294885 C 66.216012 20.298885 66.221283 20.302751 66.230583 20.306771 C 67.052724 20.662818 68.355802 20.914828 70.152307 20.831803 C 70.157707 21.724359 70.172159 29.915389 68.158114 36.925911 C 68.071324 37.228034 67.930483 37.600501 67.824284 37.94342 C 68.071151 34.435131 68.114072 28.704236 66.206812 20.294885 z M 55.490153 24.886853 C 60.798227 31.592069 64.858757 38.623132 66.013542 40.69519 C 58.815122 38.96279 49.23129 35.352614 47.036922 34.503837 C 50.876871 31.571516 53.143456 29.004767 54.339836 27.138912 C 54.947866 26.190591 55.277081 25.44773 55.490153 24.886853 z M 71.021505 26.080062 C 71.053375 26.155422 71.072521 26.311081 71.105221 26.378752 C 71.32222 26.827733 71.559 27.086567 71.785282 27.269653 C 71.63696 27.870028 70.984928 30.171429 70.087712 33.005737 C 70.54909 30.470808 70.870988 28.168873 71.021505 26.080062 z M 72.452942 26.456783 C 72.452894 26.456783 72.474327 26.45835 72.482397 26.45885 A 0.35685618 0.35685618 0 0 0 72.48033 26.460917 A 0.35685618 0.35685618 0 0 0 72.457076 26.45885 C 72.445356 26.459811 72.433576 26.461284 72.421936 26.462984 C 72.432746 26.460784 72.452952 26.456783 72.452942 26.456783 z M 72.412118 26.465051 C 72.413418 26.464843 72.414952 26.46525 72.416252 26.465051 L 72.474646 26.465051 A 0.35685618 0.35685618 0 0 0 72.347522 26.568404 C 72.334262 26.537694 72.312382 26.486239 72.312382 26.486239 C 72.312354 26.486247 72.370648 26.473591 72.412118 26.465051 z M 51.838696 26.736869 L 51.839213 26.736869 L 51.867118 26.750305 C 51.781688 27.045686 51.681755 27.490672 51.478512 27.947131 L 50.99482 27.495479 C 51.280011 27.208222 51.568391 26.954057 51.838696 26.736869 z M 72.470512 26.8087 L 72.469478 26.816451 A 0.20389752 0.20389752 0 0 0 72.468962 26.816451 A 0.20389752 0.20389752 0 0 0 72.452942 26.814384 C 72.452942 26.814384 72.468802 26.8094 72.470512 26.8087 z M 49.930802 28.810128 L 50.428963 29.276249 C 50.044598 29.584006 49.657021 29.808029 49.409387 29.991451 L 49.364945 29.970264 C 49.506246 29.558728 49.702113 29.171055 49.930802 28.810128 z M 45.386894 34.5705 A 0.35685618 0.35685618 0 0 0 45.377075 34.595821 C 45.376351 34.612261 45.376351 34.627957 45.377075 34.644397 L 45.386894 34.5705 z M 46.748051 35.591626 C 49.105221 36.502981 58.042751 39.8422 65.205322 41.628984 C 54.113097 44.83773 46.998208 45.017652 44.810701 44.974516 C 47.712056 41.380113 47.224413 37.389359 46.748051 35.591626 z M 64.048804 43.099695 C 56.005606 48.994619 48.178394 51.114372 46.703092 51.455257 C 46.790002 49.37506 46.263683 47.79288 45.576029 46.793009 C 45.34994 46.464267 45.148239 46.316199 44.92749 46.09176 C 47.208391 46.12537 53.833404 45.888244 64.048804 43.099695 z M 70.388468 47.383154 L 71.436466 48.408931 C 71.097661 48.495296 70.758781 48.581617 70.403971 48.685917 L 70.388468 47.383154 z M 78.828263 47.960897 C 79.13035 47.955742 79.447257 47.982668 79.775492 48.054948 L 79.775492 48.054431 C 80.431973 48.198985 81.135359 48.524241 81.861153 49.14067 C 83.492313 50.526022 84.627326 51.239701 85.523462 51.761698 C 86.376667 52.258692 86.97873 52.575947 87.661833 53.160063 C 87.818377 53.522382 88.400568 55.08977 87.787923 57.145866 C 84.265281 55.359997 79.94818 53.719732 74.952531 52.841736 C 74.950863 52.08194 75.094578 51.396265 75.280676 50.805168 L 77.03044 52.518241 L 78.091874 51.43407 L 75.924048 49.311719 C 76.094934 49.012577 76.224805 48.830094 76.224805 48.830094 A 0.66266501 0.66266501 0 0 0 76.252193 48.789787 C 76.262445 48.781539 76.264016 48.779672 76.277515 48.769633 C 76.355065 48.711943 76.483 48.629129 76.644417 48.541223 C 76.967253 48.365411 77.428789 48.169688 77.968884 48.058565 C 78.238935 48.003004 78.526181 47.966051 78.828263 47.960897 z M 72.471545 48.054431 L 72.568697 48.149516 C 72.489397 48.165763 72.410053 48.182204 72.329435 48.199642 L 72.471545 48.054431 z M 58.163892 48.156234 C 55.403882 50.041577 53.31863 51.324725 53.156445 51.411849 C 52.447612 51.327289 51.399141 51.39434 50.400541 51.439237 C 52.517087 50.739818 55.01323 49.803696 58.163892 48.156234 z M 73.712813 49.270378 L 74.232678 49.778874 C 73.926834 50.547332 73.657027 51.524454 73.629614 52.640198 C 73.306178 52.628771 72.96784 52.63647 72.609521 52.668103 C 71.944504 52.726811 71.213188 52.861045 70.455131 53.018986 L 70.419991 50.071879 C 70.533081 50.037113 70.645132 49.996094 70.757955 49.962842 C 71.806064 49.653928 72.838509 49.420836 73.712813 49.270378 z M 68.1731 50.863045 L 68.109538 53.584843 C 67.033421 53.881578 65.967483 54.215281 64.99965 54.551192 C 64.989268 53.848548 65.095457 53.294838 65.216691 52.892379 C 65.332703 52.507284 65.445972 52.287013 65.503495 52.188546 C 66.153315 51.74471 67.110785 51.287766 68.1731 50.863045 z M 63.565629 52.206632 C 63.743121 52.204855 63.886498 52.216464 64.042603 52.223686 C 64.009796 52.313384 63.978038 52.408661 63.947518 52.509973 C 63.777735 53.07356 63.641325 53.839833 63.679834 54.782703 C 61.988275 54.798683 60.434871 55.057928 59.269767 55.367163 C 58.943314 55.45381 58.64974 55.542078 58.38455 55.627612 C 58.43419 55.383015 58.484055 55.144257 58.531311 54.892773 C 59.040977 53.50199 60.241201 52.79609 61.583838 52.451062 C 62.258401 52.277714 62.963738 52.212659 63.565629 52.206632 z M 45.947066 52.786959 C 45.958116 52.792159 45.969296 52.796441 45.980656 52.800911 A 0.35685618 0.35685618 0 0 0 45.996159 52.802979 L 45.947066 52.786959 z M 89.116007 53.37452 C 89.781611 53.427683 90.395724 53.659566 91.013566 53.961047 C 91.8753 54.381545 92.695147 54.947865 93.661983 55.168209 C 95.89648 55.677447 96.164708 56.411179 96.708826 57.267822 C 96.957547 57.659408 97.166766 58.014322 97.341862 58.872892 C 97.516957 59.731462 97.629122 61.080505 97.570272 63.291227 C 97.564817 63.496083 97.556624 63.576629 97.550118 63.74598 C 96.149391 62.482422 93.211699 60.071447 88.978548 57.773735 C 89.586872 55.925327 89.365087 54.317755 89.116007 53.37452 z M 73.277181 53.99257 C 73.357996 53.990042 73.427222 53.992749 73.50249 53.99257 C 73.231548 55.177934 72.76455 57.695457 72.984176 60.204594 C 72.192196 60.005913 71.373064 59.859258 70.534196 59.762244 L 70.470634 54.367224 C 71.522788 54.147407 72.518903 54.016289 73.277181 53.99257 z M 74.829024 54.162069 C 79.803013 55.048397 84.074224 56.707271 87.527474 58.49307 C 87.682402 59.399358 88.05167 62.087093 87.424121 64.217269 C 84.029931 63.05023 79.710127 61.782653 74.353601 60.548242 C 74.038354 58.036134 74.576309 55.265507 74.829024 54.162069 z M 68.076982 54.969255 L 67.967428 59.644421 C 67.008362 59.665893 66.03162 59.752229 65.043058 59.907971 C 64.84401 59.029185 64.797104 58.177175 64.826017 57.462642 C 64.852412 56.810323 64.947821 56.259905 65.023938 55.941288 C 65.954104 55.609638 67.008765 55.272979 68.076982 54.969255 z M 63.638493 56.078748 C 63.573466 56.449062 63.522948 56.89388 63.502067 57.409932 C 63.472521 58.140114 63.510049 58.994426 63.685518 59.897119 C 61.393241 59.786009 59.845517 59.92224 58.849638 60.107442 C 58.508991 60.170792 58.249132 60.238526 58.025916 60.30588 C 57.847423 59.180332 57.924621 58.154815 58.096195 57.13243 C 58.103777 57.129466 58.105506 57.128195 58.113249 57.125195 C 58.460739 56.990556 58.976094 56.814724 59.609281 56.646672 C 60.684806 56.361212 62.102746 56.101763 63.638493 56.078748 z M 89.00697 59.300773 C 94.127616 62.18978 97.04748 65.065224 97.412659 65.436316 A 0.66273128 0.66273128 0 0 0 97.357365 65.584111 C 97.391111 66.623812 97.412582 67.628344 97.297937 68.479024 C 96.457642 67.989187 94.999554 67.203238 92.628971 66.19751 C 91.5126 65.723883 90.184442 65.205183 88.678308 64.66272 C 89.276326 62.751006 89.176424 60.65136 89.00697 59.300773 z M 58.103947 60.731694 C 58.109589 60.736553 58.127221 60.75187 58.127201 60.751847 C 58.127079 60.751706 58.242509 60.939603 58.24244 60.939433 C 58.242422 60.939387 58.246924 60.977025 58.248124 60.988525 A 0.66266501 0.66266501 0 0 0 58.117383 60.806624 C 58.111677 60.781206 58.109374 60.756994 58.103947 60.731694 z M 70.550216 61.097563 C 71.385023 61.201556 72.195947 61.359403 72.974874 61.570919 C 72.787055 62.456958 72.559811 64.062091 72.761967 66.102942 C 72.02941 65.969786 71.312068 65.878697 70.605509 65.807869 L 70.550216 61.097563 z M 58.275513 61.255693 C 58.276475 61.264693 58.27913 61.298634 58.27913 61.298584 C 58.279137 61.298542 58.274446 61.313234 58.273446 61.316154 A 0.66266501 0.66266501 0 0 0 58.275513 61.255693 z M 58.230554 61.445345 C 58.225054 61.461615 58.214981 61.490444 58.215051 61.490304 C 58.215349 61.489734 58.17281 61.560398 58.15614 61.582288 C 58.12986 61.616788 58.145712 61.589819 58.128752 61.609159 A 0.66266501 0.66266501 0 0 0 58.230554 61.445345 z M 47.863745 61.688741 L 47.863745 73.686975 L 60.991109 73.686975 L 60.991109 61.688741 L 47.863745 61.688741 z M 61.5611 61.705794 L 61.5611 73.704028 L 67.409839 73.773792 L 67.391752 62.734155 L 61.5611 61.705794 z M 74.255933 61.885628 C 79.680392 63.142732 83.999141 64.427632 87.359526 65.60013 C 87.434324 65.733447 87.562606 66.009171 87.654081 66.466744 C 87.770811 67.050639 87.802102 67.88579 87.450476 68.972534 C 86.41467 68.680126 85.27803 68.390435 84.059469 68.106954 C 82.930877 66.774702 81.445618 66.009889 79.551217 66.009924 L 75.19231 66.479146 C 74.835466 66.428558 74.486893 66.376536 74.120024 66.327734 C 73.863894 64.269428 74.080378 62.706626 74.255933 61.885628 z M 88.946509 66.166504 C 90.137412 66.607493 91.193091 67.028607 92.111174 67.418107 C 94.920636 68.610034 96.464073 69.498627 97.077795 69.879972 C 97.141699 70.943009 97.248268 71.946805 97.167196 72.897876 C 96.32815 72.378913 94.924397 71.610417 92.785034 70.757955 C 91.652727 70.306767 90.285915 69.830273 88.718616 69.352356 C 89.127595 68.064305 89.111633 66.988841 88.955294 66.206812 C 88.952536 66.193016 88.949365 66.180142 88.946509 66.166504 z M 70.621012 67.142155 C 71.108261 67.193089 71.600211 67.260265 72.095858 67.340592 C 71.578624 67.702816 71.090786 68.192174 70.640649 68.788566 L 70.621012 67.142155 z M 80.81884 69.40765 A 4.7743616 10.059762 0 0 1 85.592708 79.468018 A 4.7743616 10.059762 0 0 1 80.81884 89.527352 A 4.7743616 10.059762 0 0 1 76.044454 79.468018 A 4.7743616 10.059762 0 0 1 80.81884 69.40765 z M 85.125553 69.728044 C 85.876345 69.91736 86.597605 70.108438 87.268058 70.300102 C 87.388074 71.193021 87.600635 73.601151 86.795736 75.718376 L 86.738892 75.70649 C 86.474069 73.377718 85.950402 71.331977 85.125553 69.728044 z M 88.657638 70.717647 C 90.054414 71.152666 91.274186 71.58362 92.295142 71.990438 C 95.027446 73.07917 96.445819 73.967752 97.001831 74.358252 C 97.001183 74.380186 96.997999 74.416337 96.99718 74.439384 C 96.452974 75.137985 95.994597 76.216844 95.674264 77.556506 L 88.108317 75.990194 C 88.819421 73.98666 88.775184 71.918726 88.657638 70.717647 z M 102.2227 75.311682 C 103.54753 75.311821 104.15651 78.291723 104.15643 81.897843 C 104.15638 85.503697 103.54743 88.370693 102.2227 88.370833 C 100.89796 88.370693 100.46369 85.480442 100.46364 81.874589 C 100.46355 78.268468 100.89786 75.311821 102.2227 75.311682 z M 81.576416 76.794796 A 1.3769199 2.9012225 0 0 0 80.199239 79.695911 A 1.3769199 2.9012225 0 0 0 81.576416 82.597026 A 1.3769199 2.9012225 0 0 0 82.953076 79.695911 A 1.3769199 2.9012225 0 0 0 81.576416 76.794796 z M 50.123039 76.860942 L 67.890946 76.860942 C 67.854902 77.199185 67.828112 77.544943 67.805164 77.893953 L 50.205721 77.893953 C 50.185384 77.543614 50.157585 77.199498 50.123039 76.860942 z M 86.928027 78.364726 L 95.356453 79.315572 C 95.292997 79.810991 95.247605 80.328903 95.220028 80.865865 L 86.921826 80.865865 C 86.93835 80.457792 86.950229 80.045494 86.950248 79.62408 C 86.95025 79.197771 86.941207 78.779439 86.928027 78.364726 z M 102.50382 80.093819 A 0.69180369 1.8830537 0 0 0 101.81187 81.976908 A 0.69180369 1.8830537 0 0 0 102.50382 83.859998 A 0.69180369 1.8830537 0 0 0 103.19577 81.976908 A 0.69180369 1.8830537 0 0 0 102.50382 80.093819 z M 50.140609 81.637911 L 67.818599 81.637911 C 68.013201 84.33924 68.600484 86.771819 69.451575 88.666939 C 69.335123 88.410328 69.212645 88.165416 69.106376 87.889209 C 68.581075 87.888009 68.087812 87.877364 67.814465 87.826164 C 67.758195 87.789004 67.644147 87.698094 67.431543 87.644779 L 67.429993 87.644779 C 66.557209 87.426625 65.631141 87.625142 65.088017 87.625142 L 59.613416 87.625142 C 59.206165 87.625142 58.753746 87.684355 58.320471 87.710925 C 57.8872 87.737495 57.477178 87.713422 57.320532 87.660282 C 57.000081 87.551578 56.517907 87.457599 55.96661 87.394666 C 55.69096 87.363196 55.409185 87.342577 55.138753 87.349707 C 54.868324 87.356807 54.617601 87.367959 54.320199 87.519722 C 54.079537 87.642567 53.139698 87.684918 52.187512 87.617391 C 51.235326 87.549861 50.304215 87.386901 49.478634 87.668034 C 49.317084 87.723094 49.250736 87.767884 49.171676 87.812728 C 49.047929 87.799968 48.91386 87.768406 48.642509 87.822546 C 48.346231 87.881796 48.157427 88.019285 48.035311 88.099532 C 47.913196 88.179782 47.853414 88.20521 47.868913 88.201335 C 47.920241 88.18853 47.804064 88.207114 47.690629 88.218905 C 49.034946 86.604962 49.859351 84.329904 50.140609 81.637911 z M 86.758012 82.976847 L 95.207625 82.976847 C 95.279984 84.739165 95.558591 86.321756 95.965202 87.590519 C 95.870752 87.60781 95.767805 87.636377 95.639124 87.701107 C 95.445883 87.798287 95.279958 87.796597 94.966813 87.771387 C 94.653667 87.746177 94.206324 87.679055 93.693506 87.849935 L 93.691439 87.849935 C 93.536306 87.901785 93.546938 87.953992 93.480599 88.023568 C 93.478599 88.021768 93.519392 88.018965 93.443392 88.008065 C 93.31462 87.989605 93.092655 87.928704 92.771598 88.037004 C 92.249063 88.213164 91.579861 88.230834 90.812545 88.386853 C 90.805145 88.388353 90.633535 88.38245 90.402751 88.35533 C 90.171963 88.32818 89.866251 88.273752 89.486528 88.414242 C 88.926552 88.621355 88.11733 88.439112 87.103727 88.777527 C 87.105327 88.777004 86.831433 88.779324 86.488261 88.726884 C 86.145089 88.674374 85.706601 88.558338 85.193766 88.814734 C 85.184164 88.819498 85.116907 88.834143 85.065609 88.846257 C 85.915439 87.253677 86.484538 85.260075 86.758012 82.976847 z M 55.173893 88.675724 C 55.350873 88.671024 55.582845 88.684224 55.816231 88.710864 C 56.283009 88.764154 56.802836 88.88485 56.894718 88.91602 C 57.403547 89.088634 57.913406 89.063197 58.40057 89.033325 C 58.88773 89.003455 59.356278 88.95116 59.613416 88.95116 L 65.088017 88.95116 C 65.825124 88.95116 66.679348 88.844053 67.072909 88.926355 C 67.080409 88.930655 67.078709 88.929054 67.092029 88.937724 C 67.154559 88.978654 67.281061 89.076505 67.505957 89.123242 C 68.039893 89.2338 68.627698 89.216857 69.199394 89.216777 C 69.378384 89.216752 69.537223 89.223679 69.700655 89.229179 C 69.633226 89.096886 69.576644 88.942259 69.512036 88.803882 C 69.685248 89.1787 69.872164 89.523824 70.065491 89.852397 C 70.054237 89.853 70.042629 89.852814 70.031384 89.85343 L 70.029317 89.85343 C 69.686631 89.87164 69.495098 89.948309 69.445374 89.951099 C 69.078994 89.971219 68.574134 89.866553 67.952958 89.955233 C 67.885728 89.964833 67.698859 89.988236 67.505957 90.023446 C 67.313056 90.058656 67.154075 90.04727 66.853284 90.240487 A 0.66273128 0.66273128 0 0 0 66.839848 90.248238 C 66.833848 90.252338 66.837896 90.261438 66.832096 90.265808 C 66.804626 90.274108 66.817538 90.255208 66.787138 90.267358 C 66.132287 90.529303 65.629874 90.733656 65.03324 90.779472 C 64.425579 90.826182 63.737931 90.777405 63.02561 90.777405 C 62.303125 90.777405 61.594423 90.838632 61.006095 90.781022 C 60.111348 90.693432 59.099156 90.56123 58.072424 90.689555 C 57.437365 90.768855 56.890263 90.938592 56.396558 91.037337 C 56.211586 91.074337 56.130118 91.088507 56.050842 91.107617 C 56.031022 91.112417 56.014147 91.115232 55.968677 91.130872 C 55.945937 91.138672 55.917229 91.146272 55.851371 91.183582 C 55.834911 91.192882 55.793177 91.220639 55.792977 91.220789 C 55.79286 91.220873 55.769121 91.241993 55.745951 91.261613 C 55.732841 91.263013 55.724051 91.264447 55.710811 91.265747 C 55.627691 91.274047 55.542237 91.281684 55.476717 91.286934 C 55.411197 91.292234 55.313891 91.294686 55.390417 91.294686 A 0.66266501 0.66266501 0 0 0 55.241073 91.334993 C 54.61355 91.187095 53.983595 91.041234 53.369352 90.886442 C 51.844102 90.502053 51.095517 90.249124 49.707043 89.839478 C 49.639315 89.819488 49.333303 89.732861 48.98254 89.632772 C 48.807158 89.582732 48.631159 89.532645 48.494198 89.494279 C 48.425718 89.475099 48.367778 89.459613 48.322115 89.447253 C 48.314918 89.445299 48.309597 89.444314 48.302995 89.442603 C 48.513362 89.368746 48.668063 89.269969 48.763949 89.206958 C 48.878014 89.131998 48.927513 89.118222 48.902441 89.123242 C 48.914851 89.120742 49.056315 89.134611 49.328255 89.134611 C 49.429002 89.134963 49.528503 89.112345 49.619194 89.068465 C 49.790123 88.984905 49.882315 88.929247 49.904447 88.921704 C 50.133279 88.843784 51.118745 88.868554 52.093978 88.937724 C 53.069211 89.006894 54.067604 89.135471 54.921712 88.699495 C 54.868052 88.726875 54.996912 88.680394 55.173893 88.675724 z M 67.162309 90.236353 C 67.260269 90.234553 67.288396 90.248998 67.285299 90.248238 C 67.283199 90.247728 67.155263 90.265813 67.118901 90.253923 C 67.130721 90.252623 67.152349 90.236533 67.162309 90.236353 z M 30.974854 90.339705 C 30.885764 90.389235 30.854679 90.398954 30.83016 90.405334 C 30.874468 90.401734 30.940534 90.396335 31.031181 90.392415 C 31.226459 90.384115 31.507996 90.377218 31.843534 90.371228 C 32.514617 90.359238 33.404433 90.352211 34.300749 90.351591 C 34.659313 90.351342 34.954003 90.356916 35.301721 90.358826 C 35.765453 90.556081 36.247154 90.669306 36.744527 90.675602 C 36.407277 90.870539 35.922799 91.064591 35.6309 91.08798 A 0.66273128 0.66273128 0 0 0 35.628833 91.08798 C 34.649355 91.16657 33.582892 91.060871 32.515328 90.978426 C 31.681566 90.914017 30.756925 90.726359 29.771309 90.723145 C 29.89588 90.67029 29.951599 90.609045 29.996102 90.548478 C 30.021522 90.545078 30.059372 90.538579 30.138729 90.537109 C 30.325044 90.533809 30.649565 90.520589 30.974854 90.339705 z M 66.761816 90.407918 L 66.761816 90.408435 C 66.730806 90.452465 66.722855 90.485025 66.701355 90.532975 C 66.725935 90.489415 66.701978 90.456251 66.740112 90.417737 L 66.742179 90.416187 C 66.747879 90.410487 66.755806 90.413318 66.761816 90.407918 z M 28.935701 90.767586 C 28.934404 90.767844 28.94195 90.767878 28.940869 90.768103 C 28.935654 90.76874 28.930585 90.769002 28.925366 90.769653 C 28.929128 90.768912 28.931932 90.768332 28.935701 90.767586 z M 66.560795 90.939669 C 66.569595 90.975569 66.577715 91.03837 66.579915 91.045089 C 66.583915 91.057189 66.570308 91.038849 66.558728 90.943286 C 66.558638 90.942542 66.560795 90.940469 66.560795 90.939669 z M 56.417745 91.148442 C 56.430455 91.153242 56.451495 91.160397 56.451335 91.160327 C 56.450895 91.160129 56.648441 91.296974 56.648222 91.296753 C 56.648174 91.296704 56.67901 91.34207 56.7092 91.38667 C 56.595652 91.282038 56.474355 91.158867 56.417745 91.148442 z M 86.634505 91.205286 L 86.635022 91.205286 C 86.598332 91.258166 86.521821 91.368442 86.427799 91.503975 C 86.461799 91.425347 86.498369 91.341318 86.498079 91.341711 C 86.497589 91.342373 86.592906 91.235357 86.630888 91.206836 C 86.632788 91.205436 86.632705 91.206681 86.634505 91.205286 z M 67.279097 91.498291 L 67.277547 91.499841 C 67.270547 91.502641 67.276079 91.497241 67.269279 91.499841 C 67.272179 91.498641 67.276197 91.499488 67.279097 91.498291 z M 87.130599 92.388676 C 87.13021 92.389066 87.129049 92.390743 87.129049 92.390743 C 87.12912 92.390724 87.074662 92.401009 87.056702 92.404179 C 87.069472 92.403591 87.113309 92.390126 87.130599 92.388676 z M 17.125053 92.521484 C 17.115653 92.535964 17.126434 92.542234 17.115234 92.556624 C 17.106134 92.568234 17.104477 92.55972 17.095597 92.57006 C 17.105097 92.5508 17.117023 92.540544 17.125053 92.521484 z " />
    <path
       id="text35-7-0"
       style="font-size:22.3675px;font-family:Ramabhadra;-inkscape-font-specification:'Ramabhadra, Normal';stroke-width:4.27767;stroke-linecap:round;stroke-linejoin:round;stroke-miterlimit:3.5"
       d="m 36.994056,109.12515 c 0,-3.67866 0.966426,-6.57793 2.899276,-8.69783 1.932852,-2.119905 4.629491,-3.179855 8.089917,-3.179855 3.928053,0 6.74939,1.169063 8.464017,3.507185 1.714627,2.30695 2.571939,5.06594 2.571939,8.27697 0,3.6163 -0.982013,6.46882 -2.946038,8.55754 -1.932852,2.08873 -4.598315,3.13309 -7.996392,3.13309 -3.460427,0 -6.172655,-1.02877 -8.13668,-3.08633 -1.964025,-2.08872 -2.946039,-4.92565 -2.946039,-8.51077 z m 4.723015,-0.1403 c 0,2.3693 0.545563,4.27098 1.636688,5.70503 1.122301,1.40287 2.681053,2.10431 4.676253,2.10431 2.119902,0 3.69424,-0.7482 4.723015,-2.2446 1.028774,-1.4964 1.543162,-3.38249 1.543162,-5.65826 0,-5.14388 -2.088726,-7.71582 -6.266177,-7.71582 -4.208627,0 -6.312941,2.60311 -6.312941,7.80934 z m 26.46757,11.45682 -8.136678,-22.726587 h 5.003589 l 5.751791,16.834507 5.517978,-16.834507 h 4.863301 l -8.089915,22.726587 z m 14.730134,0 V 97.71509 h 16.881271 v 3.83453 H 87.497503 v 5.05035 h 11.410055 v 3.83453 H 87.497503 v 6.17265 h 12.719407 v 3.83453 z" />
    <path
       d="M 34.863818,120.37321 V 97.646619 h -9.679842 c -2.992802,0 -5.221815,0.452038 -6.687041,1.356113 -1.4964,0.904076 -2.244601,2.571938 -2.244601,5.003588 0,3.64748 2.010788,5.76738 6.032366,6.3597 -1.55875,0.81056 -3.242202,2.66547 -5.050352,5.56475 l -2.805752,4.44244 h 5.517978 l 4.910065,-7.34172 c 0.498799,-0.7482 1.05995,-1.29376 1.68345,-1.63669 0.592325,-0.34292 1.527575,-0.51439 2.805752,-0.51439 h 0.935251 v 9.4928 z M 30.281092,107.2797 h -3.413664 c -2.306952,0 -3.865702,-0.18705 -4.676254,-0.56115 -0.810549,-0.40528 -1.215824,-1.20024 -1.215824,-2.38489 0,-1.1223 0.342924,-1.8705 1.028775,-2.2446 0.654675,-0.40528 2.213427,-0.60791 4.676253,-0.60791 h 3.600714 z"
       style="font-size:22.3675px;font-family:Ramabhadra;-inkscape-font-specification:'Ramabhadra, Normal';fill:url(#linearGradient8-5);fill-opacity:1;stroke-width:4.27767;stroke-linecap:round;stroke-linejoin:round;stroke-miterlimit:3.5"
       id="path1-1-3" />
    <path
       d="M 103.30098,120.48144 V 97.75486 h 9.67983 c 2.99282,0 5.22183,0.452038 6.68705,1.356113 1.4964,0.904077 2.2446,2.571937 2.2446,5.003587 0,3.64748 -2.01078,5.76738 -6.03236,6.35971 1.55874,0.81055 3.2422,2.66546 5.05035,5.56474 l 2.80576,4.44244 h -5.51798 l -4.91006,-7.34172 c -0.49881,-0.7482 -1.05996,-1.29376 -1.68346,-1.63669 -0.59233,-0.34292 -1.52758,-0.51439 -2.80575,-0.51439 h -0.93525 v 9.4928 z m 4.58273,-13.09351 h 3.41366 c 2.30695,0 3.86569,-0.18705 4.67626,-0.56115 0.81054,-0.40527 1.21583,-1.20023 1.21583,-2.38489 0,-1.1223 -0.34294,-1.8705 -1.02879,-2.2446 -0.65467,-0.40527 -2.21342,-0.60791 -4.67625,-0.60791 h -3.60071 z"
       style="font-size:22.3675px;font-family:Ramabhadra;-inkscape-font-specification:'Ramabhadra, Normal';fill:url(#linearGradient10-6);fill-opacity:1;stroke-width:4.27767;stroke-linecap:round;stroke-linejoin:round;stroke-miterlimit:3.5"
       id="path1-5-1-0" />
  </g>
</svg>
